<?xml version="1.0" encoding="utf-8"?>
<!-- Generator: Adobe Illustrator 24.0.3, SVG Export Plug-In . SVG Version: 6.00 Build 0)  -->
<svg version="1.1" id="Layer_1" xmlns="http://www.w3.org/2000/svg" xmlns:xlink="http://www.w3.org/1999/xlink" x="0px" y="0px"
	 viewBox="0 0 13.1 13.1" style="enable-background:new 0 0 13.1 13.1;" xml:space="preserve">
<style type="text/css">
	.st0{fill:#D4A589;}
</style>
<g>
	<g>
		<g>
			<path class="st0" d="M6.9,1.6C6.9,1.6,6.9,1.6,6.9,1.6c1.3,0,2.4,0.5,3.3,1.4c0.9,0.9,1.4,2.1,1.4,3.3c0,0.3,0.2,0.5,0.5,0.5
				c0,0,0,0,0,0c0.3,0,0.5-0.2,0.5-0.5c0-1.5-0.6-3-1.7-4.1c-1.1-1.1-2.5-1.7-4-1.7c0,0,0,0,0,0c-0.3,0-0.5,0.2-0.5,0.5
				C6.4,1.3,6.6,1.6,6.9,1.6z"/>
			<path class="st0" d="M13.1,10.6c0-0.5-0.2-1-0.6-1.3c-0.7-0.7-1.3-1.1-1.9-1.3C9.9,7.8,9.1,8,8.5,8.6l0,0L7.8,9.3
				C7.3,9.1,6.5,8.5,5.6,7.6L5.5,7.5C4.6,6.6,4.1,5.8,3.8,5.3l0.7-0.7l0,0C5.2,4,5.4,3.3,5.1,2.5C5,1.9,4.6,1.3,3.9,0.6
				C3.5,0.2,3.1,0,2.5,0C2,0,1.6,0.2,1.2,0.5l0,0c0,0,0,0,0,0C0.4,1.3,0,2.3,0,3.6C0,5.7,1.2,8.1,3.1,10l0,0
				c0.4,0.4,0.8,0.7,1.2,1.1C4.6,11.3,4.9,11.2,5,11c0.2-0.2,0.1-0.5-0.1-0.7c-0.4-0.3-0.8-0.6-1.1-1l0,0C2.1,7.6,1,5.4,1,3.6
				c0-1,0.3-1.8,0.8-2.3l0,0c0.4-0.3,0.9-0.3,1.3,0c1.3,1.4,1.2,2,0.6,2.6l-1,1C2.7,5,2.6,5.3,2.7,5.5c0,0.1,0.6,1.3,2.1,2.8
				l0.1,0.1c1.5,1.5,2.7,2,2.8,2.1c0.2,0.1,0.4,0,0.6-0.1l1-1c0.6-0.6,1.3-0.7,2.6,0.6c0.4,0.3,0.4,0.9,0,1.3l0,0
				c-0.5,0.5-1.3,0.8-2.3,0.8c0,0,0,0,0,0c-0.8,0-1.6-0.2-2.5-0.6c-0.3-0.1-0.6,0-0.7,0.3c-0.1,0.3,0,0.6,0.3,0.7
				c1,0.4,2,0.7,2.9,0.7c0,0,0,0,0,0c1.2,0,2.3-0.4,3-1.1c0,0,0,0,0,0l0,0C13,11.6,13.1,11.1,13.1,10.6z"/>
			<path class="st0" d="M9.5,3.7C8.9,3.1,8.4,3,8.1,2.9C7.9,2.8,7.6,3,7.5,3.3C7.4,3.5,7.6,3.8,7.9,3.9C8.1,3.9,8.4,4,8.7,4.4
				C9.1,4.7,9.2,5,9.2,5.2l0,0c0.1,0.2,0.3,0.4,0.5,0.4c0,0,0.1,0,0.1,0c0.3-0.1,0.4-0.4,0.3-0.6l0,0C10.1,4.7,10,4.2,9.5,3.7z"/>
		</g>
	</g>
</g>
</svg>
