<svg xmlns="http://www.w3.org/2000/svg" viewBox="0 0 17.6 17.6"><defs><style>.cls-1{fill:#fff;}</style></defs><title>Ресурс 3</title><g id="Слой_2" data-name="Слой 2"><g id="Layer_1" data-name="Layer 1"><path class="cls-1" d="M17.55,5.18A6.33,6.33,0,0,0,17.14,3a4.24,4.24,0,0,0-1-1.56,4.35,4.35,0,0,0-1.56-1,6.62,6.62,0,0,0-2.14-.4C11.49,0,11.19,0,8.8,0S6.11,0,5.18.05A6.33,6.33,0,0,0,3,.46a4.27,4.27,0,0,0-1.56,1A4.27,4.27,0,0,0,.46,3a6.61,6.61,0,0,0-.4,2.13C0,6.11,0,6.41,0,8.8s0,2.69.05,3.63a6.33,6.33,0,0,0,.41,2.14,4.27,4.27,0,0,0,1,1.56,4.37,4.37,0,0,0,1.56,1,6.32,6.32,0,0,0,2.13.41c.94,0,1.24.05,3.63.05s2.69,0,3.63-.05a6.27,6.27,0,0,0,2.13-.41,4.5,4.5,0,0,0,2.58-2.57,6.59,6.59,0,0,0,.41-2.14c0-.94.05-1.24.05-3.63S17.6,6.11,17.55,5.18ZM16,12.36a5,5,0,0,1-.3,1.64A3,3,0,0,1,14,15.67a5,5,0,0,1-1.64.3c-.93,0-1.21,0-3.55,0s-2.63,0-3.56,0a4.88,4.88,0,0,1-1.63-.3,2.73,2.73,0,0,1-1-.66A2.68,2.68,0,0,1,2,14a4.69,4.69,0,0,1-.3-1.63c0-.93,0-1.21,0-3.56s0-2.63,0-3.56A4.63,4.63,0,0,1,2,3.62a2.61,2.61,0,0,1,.66-1,2.81,2.81,0,0,1,1-.66,4.94,4.94,0,0,1,1.63-.3c.93,0,1.21,0,3.56,0s2.63,0,3.56,0A4.94,4.94,0,0,1,14,2a2.73,2.73,0,0,1,1,.66,2.81,2.81,0,0,1,.66,1A4.94,4.94,0,0,1,16,5.25c0,.93,0,1.21,0,3.56S16,11.43,16,12.36Z"/><path class="cls-1" d="M8.8,4.28A4.52,4.52,0,1,0,13.32,8.8,4.53,4.53,0,0,0,8.8,4.28Zm0,7.46A2.94,2.94,0,1,1,11.74,8.8,2.94,2.94,0,0,1,8.8,11.74Z"/><path class="cls-1" d="M14.56,4.1a1.06,1.06,0,1,1-1.06-1A1.05,1.05,0,0,1,14.56,4.1Z"/></g></g></svg>