<?xml version="1.0" encoding="utf-8"?>
<!-- Generator: Adobe Illustrator 17.1.0, SVG Export Plug-In . SVG Version: 6.00 Build 0)  -->
<!DOCTYPE svg PUBLIC "-//W3C//DTD SVG 1.1//EN" "http://www.w3.org/Graphics/SVG/1.1/DTD/svg11.dtd">
<svg version="1.1" id="Layer_1" xmlns="http://www.w3.org/2000/svg" xmlns:xlink="http://www.w3.org/1999/xlink" x="0px" y="0px"
	 viewBox="0 0 960 422" enable-background="new 0 0 960 422" xml:space="preserve">
<g>
	<path d="M341,265l1.9,4.4l-15.6,16.5l-4.2-1.1L341,265z M325.9,288.2c-1.5,0.1-2.8,0.1-4.1-0.2c-1.1-0.2-2-0.6-2.8-1.2
		c-0.8-0.6-1.5-1.5-2-2.6l-1.4-3.1l3.7-1.6l1.4,3c0.2,0.6,0.6,1,1,1.3c0.5,0.3,1.1,0.6,1.7,0.7c0.7,0.1,1.5,0.1,2.4,0l22.9-2.1
		l1.9,4.1L325.9,288.2z M327.6,298.4L327.6,298.4c0.6,1,1.4,1.7,2.2,2c0.9,0.3,1.9,0.3,3-0.1c1.2-0.3,2.5-0.9,4.1-1.9l14.8-9.6
		l2.3,3.4l-14.6,9.4c-2.4,1.6-4.6,2.6-6.3,3c-1.8,0.4-3.4,0.4-4.9-0.3c-1.4-0.6-2.6-1.7-3.7-3.4l-0.3-0.4L327.6,298.4z M359.6,300.9
		l2.2,3.4l-24.6,16l-2.2-3.4L359.6,300.9z M353.1,290.9l7.7,11.9l-3.3,2.1l-7.6-11.9L353.1,290.9z M369.6,313.7l2.3,2.6l-15.1,27.6
		l-2.8-3.3l12.5-21.8l-23.2,9.4l-2.9-3.3L369.6,313.7z M351.5,321.8l10.1,11.7l-2.9,2.6l-10.2-11.8L351.5,321.8z M392.5,336.1
		l3.1,2.7L376.4,361l-3.1-2.6L392.5,336.1z M380,325.1l3.1,2.7L363.8,350l-3.1-2.7L380,325.1z M373.4,336.6l12.4,10.7l-2.6,2.9
		l-12.3-10.6L373.4,336.6z M390.8,371.4c-1.7-1.1-3-2.4-3.9-4.1c-0.8-1.6-1.1-3.3-0.9-5.2c0.1-1.8,0.8-3.7,2-5.6l4.3-6.8
		c1.2-1.8,2.6-3.2,4.3-4.3c1.5-0.9,3.2-1.3,5.1-1.3c1.8,0.1,3.5,0.7,5.3,1.7c1.4,0.9,2.5,2.1,3.3,3.4c0.8,1.4,1.2,2.8,1.3,4.5
		c0.1,1.7-0.1,3.3-0.8,5l0,0l-3.5-2.2l0,0c0.3-0.9,0.3-1.9,0.2-2.8c-0.1-0.9-0.4-1.7-0.9-2.5c-0.4-0.7-1-1.3-1.7-1.8
		c-1-0.6-2.1-1-3.1-0.9c-1.1,0-2.1,0.3-3.1,0.9c-0.9,0.6-1.8,1.5-2.5,2.6l-4.4,6.9c-0.7,1.1-1.2,2.2-1.3,3.4c-0.2,1.1,0,2.2,0.4,3.1
		c0.5,1,1.2,1.8,2.2,2.4c0.8,0.5,1.5,0.8,2.4,0.9c0.9,0.1,1.7,0,2.6-0.2c0.9-0.3,1.7-0.8,2.4-1.5l0,0l3.6,2.3l0,0
		c-1.2,1.2-2.6,2.2-4.2,2.8c-1.5,0.6-3,0.8-4.7,0.6C393.8,372.8,392.2,372.3,390.8,371.4L390.8,371.4z M418.9,368l13.3-8.7l4.7,2.1
		l-17.5,10.7L418.9,368z M417.6,370.8l4.2-0.4l4.3,18.4l-5.3-2.3L417.6,370.8z M417.4,352.7l3.7,1.7l-12,26.9l-3.7-1.6L417.4,352.7z
		 M413.9,365.2l8.4,3.7l-1.5,3.6l-8.4-3.7L413.9,365.2z M447.6,395.2l6-22.4l0.3,0.6l-20.1,18l-3.3-0.8l7.6-28.5l4,1.1l-6.1,22.7
		l-0.3-0.7l20.3-18.3l3.2,0.9l-7.6,28.4L447.6,395.2z M477,400.1l2.7-23l0.4,0.6l-17.3,20.8l-3.3-0.4l3.5-29.3l4.1,0.5l-2.8,23.3
		l-0.4-0.6l17.4-21l3.3,0.4l-3.5,29.2L477,400.1z M481.5,362.7c-0.3,1.9-1,3.3-2.3,4.3s-3,1.3-5.1,1h-0.2c-2.1-0.2-3.7-1-4.8-2.1
		c-1-1.2-1.4-2.8-1.2-4.8l3.3,0.4c-0.1,1,0.1,1.8,0.6,2.4c0.5,0.6,1.3,1,2.3,1.1l0.2,0.1c1,0.1,1.9-0.1,2.5-0.6
		c0.7-0.5,1.1-1.2,1.2-2.2L481.5,362.7z M516.7,369.3l4.1-0.5l3.5,29.3l-4.2,0.4L516.7,369.3z M500.1,371.2l4.1-0.4l3.5,29.2
		l-4.2,0.5L500.1,371.2z M502.6,370.9l16.2-1.9l0.5,4l-16.3,1.9L502.6,370.9z M524,368.3l4.1-1.1l7.9,28.4l-4.1,1.1L524,368.3z
		 M532.8,392.3l16.3-4.6l1,3.9l-16.3,4.6L532.8,392.3z M529.3,380.1l14.2-4l1,3.7l-14.1,4L529.3,380.1z M525.9,367.8l16.3-4.6
		l1.1,3.7l-16.3,4.6L525.9,367.8z M552.6,374.6l8.7-3.5c0.8-0.3,1.4-0.8,1.9-1.5c0.5-0.6,0.7-1.3,0.8-2.2c0-0.8-0.1-1.7-0.5-2.6l0,0
		c-0.4-0.9-0.9-1.7-1.5-2.2c-0.7-0.6-1.4-1-2.1-1.1c-0.8-0.1-1.6,0-2.4,0.3l-8.7,3.5l-1.5-3.5l8.6-3.5c1.6-0.7,3.1-0.9,4.7-0.7
		c1.5,0.1,2.9,0.7,4.2,1.7c1.1,1,2.1,2.3,2.7,4l0,0c0.7,1.6,1,3.2,0.8,4.8c-0.1,1.5-0.7,2.9-1.6,4.2c-1,1.2-2.3,2.1-4,2.7l-8.5,3.5
		L552.6,374.6z M545.3,362.3l3.7-1.5l11.2,27.3l-3.9,1.5L545.3,362.3z M565.9,353.4l3.5-2.1l14.9,25.4l-3.5,2.1L565.9,353.4z
		 M580.5,374.4l14.6-8.5l2,3.3l-14.6,8.6L580.5,374.4z M574.1,363.4l12.7-7.4l2,3.4l-12.7,7.4L574.1,363.4z M567.6,352.4l14.6-8.6
		l2,3.4l-14.6,8.5L567.6,352.4z M582.4,344l3.6-2.9l20,11.1v4.2L582.4,344z M608.7,353c0.4,1.4,0.7,2.7,0.8,3.9
		c0,1.1-0.1,2.2-0.5,3.1c-0.4,0.9-1.1,1.8-2.1,2.5l-2.6,2.1l-2.5-3.1l2.6-2.1c0.5-0.4,0.8-0.8,1-1.4c0.2-0.5,0.3-1.1,0.2-1.8
		c-0.1-0.6-0.2-1.4-0.5-2.3l-7.8-21.7l3.5-2.7L608.7,353z M618,348.3L618,348.3c0.8-0.8,1.3-1.7,1.4-2.6c0.1-0.9-0.1-1.9-0.7-2.9
		c-0.6-1-1.5-2.2-2.8-3.4L603.1,327l2.8-2.9l12.6,12c2,2,3.5,3.9,4.4,5.5c0.8,1.6,1.1,3.2,0.8,4.8c-0.3,1.5-1.1,3-2.5,4.5l-0.3,0.3
		L618,348.3z M613.1,316.6l2.8-3l21.3,20.5l-2.8,2.9L613.1,316.6z M604.9,325.2l9.7-10.2l2.8,2.7l-9.7,10.2L604.9,325.2z
		 M648.3,320.1c-1.2,1.7-2.6,2.9-4.4,3.6c-1.6,0.7-3.3,0.9-5.2,0.7c-1.8-0.3-3.6-1-5.4-2.3l-6.8-4.9c-1.7-1.3-3-2.7-3.9-4.4
		c-0.8-1.7-1.1-3.4-0.9-5.3c0.2-1.7,0.8-3.4,2-5.2c1.2-1.6,2.6-2.8,4.4-3.5c1.6-0.8,3.3-1,5.2-0.7c1.8,0.2,3.6,1,5.4,2.2l6.8,5
		c1.7,1.2,3,2.7,3.9,4.4s1.1,3.3,0.9,5.2C650.1,316.8,649.4,318.5,648.3,320.1L648.3,320.1z M645,317.8c0.7-1,1.1-2,1.2-3.1
		c0.1-1-0.1-2-0.6-3c-0.5-1-1.3-1.9-2.4-2.7l-7-5.1c-1-0.7-2.1-1.2-3.2-1.4c-1.1-0.2-2.1,0-3.1,0.4c-1,0.4-1.8,1.1-2.5,2.1
		c-0.7,1-1.1,2-1.2,3c-0.1,1.1,0.1,2.1,0.6,3.1c0.5,1,1.3,1.8,2.4,2.6l7,5.1c1,0.8,2.1,1.3,3.2,1.4c1.1,0.2,2.1,0.1,3.1-0.3
		C643.4,319.4,644.2,318.7,645,317.8L645,317.8z M646.7,291.2l-8-13.7l2.3-4.6l9.8,17.9L646.7,291.2z M649.5,292.6l-0.2-4.2
		l18.5-3.4l-2.5,5.2L649.5,292.6z M631.4,292l1.9-3.7l26.2,13.3l-1.8,3.6L631.4,292z M643.8,295.9l4.2-8.2l3.4,1.7l-4.2,8.2
		L643.8,295.9z"/>
	<path fill="#D4A589" d="M451.8,322 M451.8,305.2v-0.9c2.8-0.4,5.7-0.8,8.6-1.3l0.1,0.1c-0.1,2.4-0.2,4.9-0.2,7.4v4.9
		c0,1.7,0,3.2,0,4.3c0,0.4,0.2,0.7,0.6,0.8l3.4,0.8l0.1,0.8c-2.6,0-4.7-0.1-6.1-0.1s-3.4,0.1-6.1,0.1l-0.1-0.8l3.5-0.8
		c0.3-0.1,0.5-0.4,0.5-0.7c0.1-1,0.1-2.2,0.1-3.5v-3.4c0-2.6-0.1-5.1-0.1-7.1L451.8,305.2z M466.5,322 M473.3,307.8
		c-2-1-3.4-2-4.3-3c-0.7-1-1.1-2.2-1.1-3.5c0-2,0.9-3.7,2.7-5c1.9-1.4,4.2-2,6.9-2c2.5,0,4.6,0.5,6.2,1.5c1.6,1.1,2.4,2.4,2.4,4.2
		c0,2.5-1.9,4.8-5.7,6.8c2.8,1.3,4.8,2.5,5.7,3.7c0.9,1.2,1.4,2.6,1.4,4.3c0,2.2-1,4.2-3.2,5.6c-2.1,1.5-4.7,2.2-7.7,2.2
		c-2.9,0-5.4-0.6-7.3-1.9c-1.9-1.2-2.8-2.9-2.8-5C466.5,312.4,468.7,309.8,473.3,307.8L473.3,307.8z M475.2,308.5
		c-2.8,1.6-4.3,3.7-4.3,6.6c0,1.7,0.6,3.1,1.6,4.3c1.1,1,2.6,1.5,4.5,1.5c1.7,0,3.1-0.4,4.3-1.4c1.2-0.9,1.7-2.1,1.7-3.6
		c0-1.4-0.5-2.6-1.5-3.6C480.4,311,478.4,309.9,475.2,308.5L475.2,308.5z M478.6,306c2-1.5,3-3.3,3-5.5c0-1.5-0.4-2.7-1.2-3.5
		c-0.8-0.7-1.9-1.2-3.2-1.2c-1.4,0-2.5,0.4-3.3,1.1c-0.9,0.8-1.3,1.8-1.3,3c0,1.3,0.5,2.4,1.4,3.2
		C474.8,303.9,476.3,304.8,478.6,306L478.6,306z"/>
	<path fill="#D4A589" d="M490.1,322 M496.9,307.8c-2-1-3.4-2-4.3-3c-0.7-1-1.1-2.2-1.1-3.5c0-2,0.9-3.7,2.8-5c1.8-1.4,4.1-2,6.8-2
		c2.5,0,4.6,0.5,6.2,1.5c1.6,1.1,2.4,2.4,2.4,4.2c0,2.5-1.9,4.8-5.7,6.8c2.9,1.3,4.8,2.5,5.7,3.7c1,1.2,1.4,2.6,1.4,4.3
		c0,2.2-1,4.2-3.1,5.6c-2.2,1.5-4.8,2.2-7.7,2.2c-3,0-5.5-0.6-7.4-1.9c-1.9-1.2-2.8-2.9-2.8-5C490.1,312.4,492.3,309.8,496.9,307.8
		L496.9,307.8z M498.8,308.5c-2.8,1.6-4.2,3.7-4.2,6.6c0,1.7,0.5,3.1,1.6,4.3c1,1,2.5,1.5,4.4,1.5c1.7,0,3.1-0.4,4.4-1.4
		c1.1-0.9,1.7-2.1,1.7-3.6c0-1.4-0.6-2.6-1.6-3.6C504.1,311,502,309.9,498.8,308.5L498.8,308.5z M502.2,306c2-1.5,3-3.3,3-5.5
		c0-1.5-0.4-2.7-1.2-3.5c-0.8-0.7-1.9-1.2-3.2-1.2c-1.4,0-2.5,0.4-3.3,1.1c-0.9,0.8-1.3,1.8-1.3,3c0,1.3,0.5,2.4,1.4,3.2
		C498.4,303.9,500.1,304.8,502.2,306L502.2,306z"/>
	<path fill="#D4A589" d="M513.9,322 M533.1,295.2c-4.5,0.8-7.8,2.2-10,4.4c-2.2,2.1-3.6,4.7-4.4,7.8h0.1c1.7-1.8,4-2.7,6.8-2.7
		c2.5,0,4.8,0.8,6.6,2.4c1.7,1.7,2.6,3.7,2.6,6.2c0,2.6-1,4.9-2.9,6.6c-1.9,1.7-4.4,2.6-7.2,2.6c-3.2,0-5.8-1.1-7.8-3.2
		c-1.9-2.1-2.9-4.9-2.9-8.3c0-4.2,1.5-7.8,4.7-11c3-3.1,7.8-5.3,14.2-6.2L533.1,295.2z M530.2,314.5c0-2.4-0.6-4.4-1.7-5.8
		c-1.2-1.5-2.6-2.2-4.5-2.2c-1.6,0-2.9,0.5-4.1,1.6c-1,1.1-1.5,2.6-1.5,4.6c0,2.3,0.6,4.3,1.8,5.9c1.1,1.7,2.7,2.5,4.6,2.5
		c1.6,0,2.9-0.6,4-1.9C529.7,317.9,530.2,316.3,530.2,314.5L530.2,314.5z"/>
	<path d="M487.7,47.3 M505.1,18.2l4.2,0.1l-0.7,29.5l-4.2-0.1L505.1,18.2z M488.4,17.8l4.2,0.1l-0.7,29.5l-4.2-0.1L488.4,17.8z
		 M491,17.9l16.3,0.4l-0.1,4l-16.3-0.4L491,17.9z"/>
	<path d="M511.1,48.5 M526.9,21.4l3.4,0.6l5.6,30.9l-4.4-0.7l-4-24.9l-12.2,22l-4.4-0.8L526.9,21.4z M517.8,39.2l15.3,2.7l-0.7,3.9
		L517.1,43L517.8,39.2z"/>
	<path d="M457.5,50.3 M464.5,19.8l3.5-0.5l14.5,27.9l-4.5,0.6l-11-22.6l-5.2,24.6l-4.4,0.5L464.5,19.8z M461.1,39.4l15.4-1.9l0.4,4
		l-15.3,1.9L461.1,39.4z"/>
	<path d="M538.2,54.2 M545.1,40.3l8.9,3c0.8,0.2,1.6,0.3,2.4,0.1c0.7-0.2,1.4-0.6,2-1.1c0.6-0.7,1-1.4,1.4-2.4l0,0
		c0.3-0.9,0.4-1.8,0.3-2.6c-0.1-0.9-0.4-1.6-0.9-2.2c-0.5-0.6-1.2-1.1-2-1.3l-8.9-3l1.2-3.7l8.8,2.9c1.6,0.6,3,1.4,4.1,2.6
		c1,1.1,1.6,2.4,1.9,4c0.2,1.5,0.1,3.1-0.5,4.9l0,0c-0.5,1.7-1.4,3-2.5,4.2c-1.1,1-2.4,1.6-4,1.9c-1.5,0.3-3.1,0.2-4.8-0.4l-8.8-2.9
		L545.1,40.3z M547.7,26.2l3.9,1.3l-9.4,28l-4-1.3L547.7,26.2z"/>
	<path d="M438,56.2 M447.8,40.5l1,3.7L435.7,48l-1-3.9L447.8,40.5z"/>
	<path d="M556.6,60.6 M576.4,40.4l3.6,1.9l-12.4,24l-3.6-1.9L576.4,40.4z M570,34.4l18.5,9.5l-1.8,3.4l-18.4-9.4L570,34.4z"/>
	<path d="M573.6,68.7 M599.5,51l2.8,2l-8.2,30.3l-3.5-2.5l7.1-24.1l-20.5,14.7l-3.5-2.6L599.5,51z M583.6,63.2l12.7,9l-2.3,3.1
		l-12.6-8.9L583.6,63.2z"/>
	<path d="M410.8,68.4 M418,32.9l3.5-1.5l12.1,26.8l-3.6,1.7l-9.1-20.2l0.7,1.1l0.3,18.1l-2.6,1.2l-13.3-11.9l-0.5-1.6l9.1,20.2
		l-3.7,1.6l-12.1-26.9l3.4-1.5l15.9,14.1L418,32.9z"/>
	<path d="M596.3,85 M631.9,78.2l2.8,2.7l-20.4,21.3l-2.8-2.8l15.2-15.9l-0.7,1l-16.8,7.1l-2-1.9l6-16.8l1.3-1.1l-15.2,16l-2.9-2.7
		l20.3-21.4l2.8,2.6l-7.2,20.1L631.9,78.2z"/>
	<path d="M389.7,83.3 M372.6,59.3l3.9-2.7l19.3,12.2l-0.2,4.3L372.6,59.3z M398.3,69.8c0.4,1.4,0.6,2.7,0.6,4c0,1.1-0.3,2.1-0.7,3
		c-0.5,1-1.2,1.7-2.2,2.4l-2.8,2l-2.3-3.3l2.8-1.9c0.5-0.4,0.8-0.8,1-1.3c0.3-0.5,0.4-1.1,0.3-1.8c0-0.7-0.1-1.4-0.4-2.4l-6.5-22
		l3.6-2.6L398.3,69.8z"/>
	<path d="M371.3,99.8 M384,87.6l-15.9-16.8l0.7,0.1l4.9,26.5l-2.4,2.3L351,78.5l2.9-2.8l16.2,17l-0.7-0.1l-5.2-26.8l2.4-2.3
		L387,84.8L384,87.6z"/>
	<path d="M617.8,106.5 M641.8,89.4l2.4,3.4l-24,17l-2.4-3.3L641.8,89.4z M622.3,105.8l9.7,13.8l-3.1,2.3l-9.8-13.8L622.3,105.8z
		 M632.5,98.5l8.5,12l-3.1,2.3l-8.5-12.1L632.5,98.5z M643,91l9.7,13.8l-3.1,2.3l-9.8-13.8L643,91z"/>
	<path d="M631.1,125.1 M664.9,126.5l1.9,3.6l-26.2,13.5l-1.9-3.7L664.9,126.5z M657.3,111.6l1.9,3.7L633,128.7l-1.9-3.6L657.3,111.6
		z M647,119.8l7.4,14.6l-3.5,1.7l-7.4-14.5L647,119.8z"/>
	<path d="M353.2,124.2 M341.5,89.9l2.2-3.1l24,17l-2.3,3.3l-17.9-12.9l1.1,0.6l9.4,15.6l-1.6,2.3l-17.5-3.5l-1.2-1.1l17.9,12.8
		l-2.3,3.2l-24-17l2.2-3.1l21,4.2L341.5,89.9z"/>
	<path d="M641.4,144.6 M669.7,143.8l1.3,4l-25.6,8.7l-1.3-4L669.7,143.8z M669.3,135.2l6.7,19.7l-3.7,1.2l-6.7-19.7L669.3,135.2z"/>
	<path d="M342.4,144.2 M316.2,130.9l1.8-3.7l26.2,13.5l-1.9,3.6L316.2,130.9z M339.8,140.7l7.7-15.1l3.4,1.8l-7.7,15.1L339.8,140.7z
		 M328.5,134.9l6.8-13.1l3.4,1.8l-6.7,13.1L328.5,134.9z M317.1,129l7.7-15l3.4,1.7l-7.7,15.1L317.1,129z"/>
	<path d="M649.4,165.6 M653.7,167l1.5,8.3c0.1,1,0.4,1.7,0.9,2.3c0.5,0.6,1.1,1,1.9,1.2c0.8,0.2,1.7,0.2,2.7,0l0,0
		c1-0.1,1.8-0.4,2.5-0.9c0.6-0.5,1-1.1,1.3-1.8c0.3-0.7,0.3-1.5,0.1-2.5l-1.4-8.3l3.9-0.7l1.4,8.2c0.4,1.9,0.3,3.4-0.1,5
		c-0.5,1.4-1.3,2.5-2.5,3.4c-1.1,0.9-2.6,1.5-4.5,1.9l0,0c-1.8,0.3-3.4,0.2-4.9-0.2c-1.4-0.5-2.5-1.3-3.4-2.4
		c-1-1.2-1.6-2.7-1.9-4.6l-1.4-8.2L653.7,167z M678.4,160.4l0.7,4.1l-29,5.2l-0.7-4.1L678.4,160.4z M654.2,192.6l-0.7-4.1l29-5.2
		l0.8,4.1L654.2,192.6z"/>
	<path d="M334.2,166.8 M320.4,159.9l2.9-8.9c0.3-0.9,0.4-1.7,0.2-2.4c-0.2-0.8-0.6-1.5-1.2-2c-0.6-0.6-1.3-1.1-2.3-1.4l0,0
		c-0.9-0.3-1.8-0.4-2.7-0.3c-0.8,0.1-1.5,0.4-2.1,0.9c-0.6,0.5-1.1,1.1-1.4,2l-2.9,8.9l-3.7-1.3l2.9-8.7c0.6-1.7,1.4-3,2.5-4.1
		c1.2-1,2.5-1.7,4.1-1.9c1.5-0.3,3.1-0.1,4.9,0.5l0,0c1.6,0.5,3,1.4,4.2,2.5c1,1.1,1.6,2.4,1.9,4c0.3,1.5,0.1,3-0.4,4.8l-2.9,8.7
		L320.4,159.9z M306.3,157.4l1.3-4l28,9.5l-1.4,3.9L306.3,157.4z"/>
	<path d="M329.5,192.5 M303.5,170.8l0.7-4.1l29,5.2l-0.7,4.1L303.5,170.8z M300.5,187.3l0.7-4.2l29,5.2l-0.7,4.2L300.5,187.3z
		 M300.9,184.8l2.8-16.1l4,0.7l-2.9,16.1L300.9,184.8z"/>
	<path fill-rule="evenodd" clip-rule="evenodd" d="M449.1,307.8c-5.5-5.3-12.1,0.9-18.1,1.3l0.1,0.1h18V307.8z"/>
	<path fill-rule="evenodd" clip-rule="evenodd" d="M449.1,310.6c-5.5,5.2-12.1-0.9-18.1-1.3l0.1-0.1h18V310.6z"/>
	<path fill-rule="evenodd" clip-rule="evenodd" d="M537.2,307.8c5.6-5.3,12.2,0.9,18.2,1.3l-0.2,0.1h-17.9L537.2,307.8z"/>
	<path fill-rule="evenodd" clip-rule="evenodd" d="M537.2,310.6c5.6,5.2,12.2-0.9,18.2-1.3l-0.2-0.1h-17.9L537.2,310.6z"/>
	<path fill="#D4A589" d="M341,265l1.9,4.4l-15.6,16.5l-4.2-1.1L341,265z M325.9,288.2c-1.5,0.1-2.8,0.1-4.1-0.2
		c-1.1-0.2-2-0.6-2.8-1.2c-0.8-0.6-1.5-1.5-2-2.6l-1.4-3.1l3.7-1.6l1.4,3c0.2,0.6,0.6,1,1,1.3c0.5,0.3,1.1,0.6,1.7,0.7
		c0.7,0.1,1.5,0.1,2.4,0l22.9-2.1l1.9,4.1L325.9,288.2z M327.6,298.4L327.6,298.4c0.6,1,1.4,1.7,2.2,2c0.9,0.3,1.9,0.3,3-0.1
		c1.2-0.3,2.5-0.9,4.1-1.9l14.8-9.6l2.3,3.4l-14.6,9.4c-2.4,1.6-4.6,2.6-6.3,3c-1.8,0.4-3.4,0.4-4.9-0.3c-1.4-0.6-2.6-1.7-3.7-3.4
		l-0.3-0.4L327.6,298.4z M359.6,300.9l2.2,3.4l-24.6,16l-2.2-3.4L359.6,300.9z M353.1,290.9l7.7,11.9l-3.3,2.1l-7.6-11.9
		L353.1,290.9z M369.6,313.7l2.3,2.6l-15.1,27.6l-2.8-3.3l12.5-21.8l-23.2,9.4l-2.9-3.3L369.6,313.7z M351.5,321.8l10.1,11.7
		l-2.9,2.6l-10.2-11.8L351.5,321.8z M392.5,336.1l3.1,2.7L376.4,361l-3.1-2.6L392.5,336.1z M380,325.1l3.1,2.7L363.8,350l-3.1-2.7
		L380,325.1z M373.4,336.6l12.4,10.7l-2.6,2.9l-12.3-10.6L373.4,336.6z M390.8,371.4c-1.7-1.1-3-2.4-3.9-4.1
		c-0.8-1.6-1.1-3.3-0.9-5.2c0.1-1.8,0.8-3.7,2-5.6l4.3-6.8c1.2-1.8,2.6-3.2,4.3-4.3c1.5-0.9,3.2-1.3,5.1-1.3
		c1.8,0.1,3.5,0.7,5.3,1.7c1.4,0.9,2.5,2.1,3.3,3.4c0.8,1.4,1.2,2.8,1.3,4.5c0.1,1.7-0.1,3.3-0.8,5l0,0l-3.5-2.2l0,0
		c0.3-0.9,0.3-1.9,0.2-2.8c-0.1-0.9-0.4-1.7-0.9-2.5c-0.4-0.7-1-1.3-1.7-1.8c-1-0.6-2.1-1-3.1-0.9c-1.1,0-2.1,0.3-3.1,0.9
		c-0.9,0.6-1.8,1.5-2.5,2.6l-4.4,6.9c-0.7,1.1-1.2,2.2-1.3,3.4c-0.2,1.1,0,2.2,0.4,3.1c0.5,1,1.2,1.8,2.2,2.4
		c0.8,0.5,1.5,0.8,2.4,0.9c0.9,0.1,1.7,0,2.6-0.2c0.9-0.3,1.7-0.8,2.4-1.5l0,0l3.6,2.3l0,0c-1.2,1.2-2.6,2.2-4.2,2.8
		c-1.5,0.6-3,0.8-4.7,0.6C393.8,372.8,392.2,372.3,390.8,371.4L390.8,371.4z M418.9,368l13.3-8.7l4.7,2.1l-17.5,10.7L418.9,368z
		 M417.6,370.8l4.2-0.4l4.3,18.4l-5.3-2.3L417.6,370.8z M417.4,352.7l3.7,1.7l-12,26.9l-3.7-1.6L417.4,352.7z M413.9,365.2l8.4,3.7
		l-1.5,3.6l-8.4-3.7L413.9,365.2z M447.6,395.2l6-22.4l0.3,0.6l-20.1,18l-3.3-0.8l7.6-28.5l4,1.1l-6.1,22.7l-0.3-0.7l20.3-18.3
		l3.2,0.9l-7.6,28.4L447.6,395.2z M477,400.1l2.7-23l0.4,0.6l-17.3,20.8l-3.3-0.4l3.5-29.3l4.1,0.5l-2.8,23.3l-0.4-0.6l17.4-21
		l3.3,0.4l-3.5,29.2L477,400.1z M481.5,362.7c-0.3,1.9-1,3.3-2.3,4.3s-3,1.3-5.1,1h-0.2c-2.1-0.2-3.7-1-4.8-2.1
		c-1-1.2-1.4-2.8-1.2-4.8l3.3,0.4c-0.1,1,0.1,1.8,0.6,2.4c0.5,0.6,1.3,1,2.3,1.1l0.2,0.1c1,0.1,1.9-0.1,2.5-0.6
		c0.7-0.5,1.1-1.2,1.2-2.2L481.5,362.7z M516.7,369.3l4.1-0.5l3.5,29.3l-4.2,0.4L516.7,369.3z M500.1,371.2l4.1-0.4l3.5,29.2
		l-4.2,0.5L500.1,371.2z M502.6,370.9l16.2-1.9l0.5,4l-16.3,1.9L502.6,370.9z M524,368.3l4.1-1.1l7.9,28.4l-4.1,1.1L524,368.3z
		 M532.8,392.3l16.3-4.6l1,3.9l-16.3,4.6L532.8,392.3z M529.3,380.1l14.2-4l1,3.7l-14.1,4L529.3,380.1z M525.9,367.8l16.3-4.6
		l1.1,3.7l-16.3,4.6L525.9,367.8z M552.6,374.6l8.7-3.5c0.8-0.3,1.4-0.8,1.9-1.5c0.5-0.6,0.7-1.3,0.8-2.2c0-0.8-0.1-1.7-0.5-2.6l0,0
		c-0.4-0.9-0.9-1.7-1.5-2.2c-0.7-0.6-1.4-1-2.1-1.1c-0.8-0.1-1.6,0-2.4,0.3l-8.7,3.5l-1.5-3.5l8.6-3.5c1.6-0.7,3.1-0.9,4.7-0.7
		c1.5,0.1,2.9,0.7,4.2,1.7c1.1,1,2.1,2.3,2.7,4l0,0c0.7,1.6,1,3.2,0.8,4.8c-0.1,1.5-0.7,2.9-1.6,4.2c-1,1.2-2.3,2.1-4,2.7l-8.5,3.5
		L552.6,374.6z M545.3,362.3l3.7-1.5l11.2,27.3l-3.9,1.5L545.3,362.3z M565.9,353.4l3.5-2.1l14.9,25.4l-3.5,2.1L565.9,353.4z
		 M580.5,374.4l14.6-8.5l2,3.3l-14.6,8.6L580.5,374.4z M574.1,363.4l12.7-7.4l2,3.4l-12.7,7.4L574.1,363.4z M567.6,352.4l14.6-8.6
		l2,3.4l-14.6,8.5L567.6,352.4z M582.4,344l3.6-2.9l20,11.1v4.2L582.4,344z M608.7,353c0.4,1.4,0.7,2.7,0.8,3.9
		c0,1.1-0.1,2.2-0.5,3.1c-0.4,0.9-1.1,1.8-2.1,2.5l-2.6,2.1l-2.5-3.1l2.6-2.1c0.5-0.4,0.8-0.8,1-1.4c0.2-0.5,0.3-1.1,0.2-1.8
		c-0.1-0.6-0.2-1.4-0.5-2.3l-7.8-21.7l3.5-2.7L608.7,353z M618,348.3L618,348.3c0.8-0.8,1.3-1.7,1.4-2.6c0.1-0.9-0.1-1.9-0.7-2.9
		c-0.6-1-1.5-2.2-2.8-3.4L603.1,327l2.8-2.9l12.6,12c2,2,3.5,3.9,4.4,5.5c0.8,1.6,1.1,3.2,0.8,4.8c-0.3,1.5-1.1,3-2.5,4.5l-0.3,0.3
		L618,348.3z M613.1,316.6l2.8-3l21.3,20.5l-2.8,2.9L613.1,316.6z M604.9,325.2l9.7-10.2l2.8,2.7l-9.7,10.2L604.9,325.2z
		 M648.3,320.1c-1.2,1.7-2.6,2.9-4.4,3.6c-1.6,0.7-3.3,0.9-5.2,0.7c-1.8-0.3-3.6-1-5.4-2.3l-6.8-4.9c-1.7-1.3-3-2.7-3.9-4.4
		c-0.8-1.7-1.1-3.4-0.9-5.3c0.2-1.7,0.8-3.4,2-5.2c1.2-1.6,2.6-2.8,4.4-3.5c1.6-0.8,3.3-1,5.2-0.7c1.8,0.2,3.6,1,5.4,2.2l6.8,5
		c1.7,1.2,3,2.7,3.9,4.4s1.1,3.3,0.9,5.2C650.1,316.8,649.4,318.5,648.3,320.1L648.3,320.1z M645,317.8c0.7-1,1.1-2,1.2-3.1
		c0.1-1-0.1-2-0.6-3c-0.5-1-1.3-1.9-2.4-2.7l-7-5.1c-1-0.7-2.1-1.2-3.2-1.4c-1.1-0.2-2.1,0-3.1,0.4c-1,0.4-1.8,1.1-2.5,2.1
		c-0.7,1-1.1,2-1.2,3c-0.1,1.1,0.1,2.1,0.6,3.1c0.5,1,1.3,1.8,2.4,2.6l7,5.1c1,0.8,2.1,1.3,3.2,1.4c1.1,0.2,2.1,0.1,3.1-0.3
		C643.4,319.4,644.2,318.7,645,317.8L645,317.8z M646.7,291.2l-8-13.7l2.3-4.6l9.8,17.9L646.7,291.2z M649.5,292.6l-0.2-4.2
		l18.5-3.4l-2.5,5.2L649.5,292.6z M631.4,292l1.9-3.7l26.2,13.3l-1.8,3.6L631.4,292z M643.8,295.9l4.2-8.2l3.4,1.7l-4.2,8.2
		L643.8,295.9z"/>
	<path fill="#D4A589" d="M487.7,47.3 M505.1,18.2l4.2,0.1l-0.7,29.5l-4.2-0.1L505.1,18.2z M488.4,17.8l4.2,0.1l-0.7,29.5l-4.2-0.1
		L488.4,17.8z M491,17.9l16.3,0.4l-0.1,4l-16.3-0.4L491,17.9z"/>
	<path fill="#D4A589" d="M511.1,48.5 M526.9,21.4l3.4,0.6l5.6,30.9l-4.4-0.7l-4-24.9l-12.2,22l-4.4-0.8L526.9,21.4z M517.8,39.2
		l15.3,2.7l-0.7,3.9L517.1,43L517.8,39.2z"/>
	<path fill="#D4A589" d="M457.5,50.3 M464.5,19.8l3.5-0.5l14.5,27.9l-4.5,0.6l-11-22.6l-5.2,24.6l-4.4,0.5L464.5,19.8z M461.1,39.4
		l15.4-1.9l0.4,4l-15.3,1.9L461.1,39.4z"/>
	<path fill="#D4A589" d="M538.2,54.2 M545.1,40.3l8.9,3c0.8,0.2,1.6,0.3,2.4,0.1c0.7-0.2,1.4-0.6,2-1.1c0.6-0.7,1-1.4,1.4-2.4l0,0
		c0.3-0.9,0.4-1.8,0.3-2.6c-0.1-0.9-0.4-1.6-0.9-2.2c-0.5-0.6-1.2-1.1-2-1.3l-8.9-3l1.2-3.7l8.8,2.9c1.6,0.6,3,1.4,4.1,2.6
		c1,1.1,1.6,2.4,1.9,4c0.2,1.5,0.1,3.1-0.5,4.9l0,0c-0.5,1.7-1.4,3-2.5,4.2c-1.1,1-2.4,1.6-4,1.9c-1.5,0.3-3.1,0.2-4.8-0.4l-8.8-2.9
		L545.1,40.3z M547.7,26.2l3.9,1.3l-9.4,28l-4-1.3L547.7,26.2z"/>
	<path fill="#D4A589" d="M438,56.2 M447.8,40.5l1,3.7L435.7,48l-1-3.9L447.8,40.5z"/>
	<path fill="#D4A589" d="M556.6,60.6 M576.4,40.4l3.6,1.9l-12.4,24l-3.6-1.9L576.4,40.4z M570,34.4l18.5,9.5l-1.8,3.4l-18.4-9.4
		L570,34.4z"/>
	<path fill="#D4A589" d="M573.6,68.7 M599.5,51l2.8,2l-8.2,30.3l-3.5-2.5l7.1-24.1l-20.5,14.7l-3.5-2.6L599.5,51z M583.6,63.2
		l12.7,9l-2.3,3.1l-12.6-8.9L583.6,63.2z"/>
	<path fill="#D4A589" d="M410.8,68.4 M418,32.9l3.5-1.5l12.1,26.8l-3.6,1.7l-9.1-20.2l0.7,1.1l0.3,18.1l-2.6,1.2l-13.3-11.9
		l-0.5-1.6l9.1,20.2l-3.7,1.6l-12.1-26.9l3.4-1.5l15.9,14.1L418,32.9z"/>
	<path fill="#D4A589" d="M596.3,85 M631.9,78.2l2.8,2.7l-20.4,21.3l-2.8-2.8l15.2-15.9l-0.7,1l-16.8,7.1l-2-1.9l6-16.8l1.3-1.1
		l-15.2,16l-2.9-2.7l20.3-21.4l2.8,2.6l-7.2,20.1L631.9,78.2z"/>
	<path fill="#D4A589" d="M389.7,83.3 M372.6,59.3l3.9-2.7l19.3,12.2l-0.2,4.3L372.6,59.3z M398.3,69.8c0.4,1.4,0.6,2.7,0.6,4
		c0,1.1-0.3,2.1-0.7,3c-0.5,1-1.2,1.7-2.2,2.4l-2.8,2l-2.3-3.3l2.8-1.9c0.5-0.4,0.8-0.8,1-1.3c0.3-0.5,0.4-1.1,0.3-1.8
		c0-0.7-0.1-1.4-0.4-2.4l-6.5-22l3.6-2.6L398.3,69.8z"/>
	<path fill="#D4A589" d="M371.3,99.8 M384,87.6l-15.9-16.8l0.7,0.1l4.9,26.5l-2.4,2.3L351,78.5l2.9-2.8l16.2,17l-0.7-0.1l-5.2-26.8
		l2.4-2.3L387,84.8L384,87.6z"/>
	<path fill="#D4A589" d="M617.8,106.5 M641.8,89.4l2.4,3.4l-24,17l-2.4-3.3L641.8,89.4z M622.3,105.8l9.7,13.8l-3.1,2.3l-9.8-13.8
		L622.3,105.8z M632.5,98.5l8.5,12l-3.1,2.3l-8.5-12.1L632.5,98.5z M643,91l9.7,13.8l-3.1,2.3l-9.8-13.8L643,91z"/>
	<path fill="#D4A589" d="M631.1,125.1 M664.9,126.5l1.9,3.6l-26.2,13.5l-1.9-3.7L664.9,126.5z M657.3,111.6l1.9,3.7L633,128.7
		l-1.9-3.6L657.3,111.6z M647,119.8l7.4,14.6l-3.5,1.7l-7.4-14.5L647,119.8z"/>
	<path fill="#D4A589" d="M353.2,124.2 M341.5,89.9l2.2-3.1l24,17l-2.3,3.3l-17.9-12.9l1.1,0.6l9.4,15.6l-1.6,2.3l-17.5-3.5l-1.2-1.1
		l17.9,12.8l-2.3,3.2l-24-17l2.2-3.1l21,4.2L341.5,89.9z"/>
	<path fill="#D4A589" d="M641.4,144.6 M669.7,143.8l1.3,4l-25.6,8.7l-1.3-4L669.7,143.8z M669.3,135.2l6.7,19.7l-3.7,1.2l-6.7-19.7
		L669.3,135.2z"/>
	<path fill="#D4A589" d="M342.4,144.2 M316.2,130.9l1.8-3.7l26.2,13.5l-1.9,3.6L316.2,130.9z M339.8,140.7l7.7-15.1l3.4,1.8
		l-7.7,15.1L339.8,140.7z M328.5,134.9l6.8-13.1l3.4,1.8l-6.7,13.1L328.5,134.9z M317.1,129l7.7-15l3.4,1.7l-7.7,15.1L317.1,129z"/>
	<path fill="#D4A589" d="M649.4,165.6 M653.7,167l1.5,8.3c0.1,1,0.4,1.7,0.9,2.3c0.5,0.6,1.1,1,1.9,1.2c0.8,0.2,1.7,0.2,2.7,0l0,0
		c1-0.1,1.8-0.4,2.5-0.9c0.6-0.5,1-1.1,1.3-1.8c0.3-0.7,0.3-1.5,0.1-2.5l-1.4-8.3l3.9-0.7l1.4,8.2c0.4,1.9,0.3,3.4-0.1,5
		c-0.5,1.4-1.3,2.5-2.5,3.4c-1.1,0.9-2.6,1.5-4.5,1.9l0,0c-1.8,0.3-3.4,0.2-4.9-0.2c-1.4-0.5-2.5-1.3-3.4-2.4
		c-1-1.2-1.6-2.7-1.9-4.6l-1.4-8.2L653.7,167z M678.4,160.4l0.7,4.1l-29,5.2l-0.7-4.1L678.4,160.4z M654.2,192.6l-0.7-4.1l29-5.2
		l0.8,4.1L654.2,192.6z"/>
	<path fill="#D4A589" d="M334.2,166.8 M320.4,159.9l2.9-8.9c0.3-0.9,0.4-1.7,0.2-2.4c-0.2-0.8-0.6-1.5-1.2-2
		c-0.6-0.6-1.3-1.1-2.3-1.4l0,0c-0.9-0.3-1.8-0.4-2.7-0.3c-0.8,0.1-1.5,0.4-2.1,0.9c-0.6,0.5-1.1,1.1-1.4,2l-2.9,8.9l-3.7-1.3
		l2.9-8.7c0.6-1.7,1.4-3,2.5-4.1c1.2-1,2.5-1.7,4.1-1.9c1.5-0.3,3.1-0.1,4.9,0.5l0,0c1.6,0.5,3,1.4,4.2,2.5c1,1.1,1.6,2.4,1.9,4
		c0.3,1.5,0.1,3-0.4,4.8l-2.9,8.7L320.4,159.9z M306.3,157.4l1.3-4l28,9.5l-1.4,3.9L306.3,157.4z"/>
	<path fill="#D4A589" d="M329.5,192.5 M303.5,170.8l0.7-4.1l29,5.2l-0.7,4.1L303.5,170.8z M300.5,187.3l0.7-4.2l29,5.2l-0.7,4.2
		L300.5,187.3z M300.9,184.8l2.8-16.1l4,0.7l-2.9,16.1L300.9,184.8z"/>
	<path fill-rule="evenodd" clip-rule="evenodd" fill="#D4A589" d="M449.1,307.8c-5.5-5.3-12.1,0.9-18.1,1.3l0.1,0.1h18V307.8z"/>
	<path fill-rule="evenodd" clip-rule="evenodd" fill="#D4A589" d="M449.1,310.6c-5.5,5.2-12.1-0.9-18.1-1.3l0.1-0.1h18V310.6z"/>
	<path fill-rule="evenodd" clip-rule="evenodd" fill="#D4A589" d="M537.2,307.8c5.6-5.3,12.2,0.9,18.2,1.3l-0.2,0.1h-17.9
		L537.2,307.8z"/>
	<path fill-rule="evenodd" clip-rule="evenodd" fill="#D4A589" d="M537.2,310.6c5.6,5.2,12.2-0.9,18.2-1.3l-0.2-0.1h-17.9
		L537.2,310.6z"/>
	<path fill-rule="evenodd" clip-rule="evenodd" fill="#D4A589" d="M474.5,123.2c0.1-1.6-1.3-2.3-1.4-5.1V98.3
		c0-12.1,7.3-10.6,18-10.6c1.1,0,2.6-0.1,2.5,1.4c-0.1,0.9-1.9,2.3-2.6,2.9c-0.4,0.4-0.6,0.7-0.9,1.1L478.3,105
		c-1.1,2.2,3.5,0.2,9.3,0.3c9.6,0,19.4,4.8,25.4,11.5c1.2,1.3,3.1,4.3,4.1,6c7.9,15,0.7,34.3-15.4,40.4
		c-22.2,8.3-47.5-14.1-35.6-32.8c1.6-2.5,3.4-4.5,5.8-5.9C472.9,123.8,473.7,123.6,474.5,123.2L474.5,123.2z M481.2,84.3
		c6.5-6.8,29.4-1.8,33.4-5.7c1.2-1.3-14.7,14.7-19.4,20.4c9.1,3,16,5.8,21.2,10.4c14,13,14.4,31.5,6.4,44.9
		c-6.3,10.6-18.3,17.7-30.8,17.9c-21.3-2-27.5-9.8-36-25.8l4.2-3.5c2.3,5.9,3.2,9.5,6.3,13.3c16.6,20.2,42.6,13.3,53.1-3.1
		c6.9-10.8,6.9-26.3-4.7-39.6c-7.4-8.5-19.3-11.9-29.4-11.1l19.4-18.9L481.2,84.3z M463.6,95.2l6.8-6.6l-0.3,31.7l-4.4,5.1l0.4-30.2
		H463.6z M462.3,125.9c0,9.5-1.8,11-6.2,16.2c-2,2.5-4.1,2.4-2.4,7.1c1.1,2.9,2.2,5.1,3.5,7.5c2.5,4.4,7,8.9,10.7,11.6
		c20.1,14.6,47.8,7.5,59-14.3c5.7-11,5.7-24.7,0-35.8c-2.3-4.7-5.7-8.9-9.5-12.4c-9.9-8.6-18.3-6.6-13.3-11.5l8.2-8.2
		c1.3-1.2,10.8-10.6,11-11.1c0.2-0.8-0.5-1.2-1.2-1c-0.5,0.1-1.3,0.5-1.9,0.8c-12,4.2-27.2,0.2-35.4,3c-4.4,1.4-8.4,5.1-10.1,9.2
		c-0.5,1.2-0.1,1.3-1.5,1.4l-0.1-2.3c0-1.3,0.3-4.7-0.3-5.1c-0.9-0.6-1.1,0-1.3,0.4c-0.6,0.8-1,1.9-1.5,2.7
		c-2.9,4.6-6.2,7.7-10.5,10.6c-0.8,0.5-2.3,1-1.5,2c1.9,1.7,4.5-1.9,4.4,3.9V125.9z"/>
	<path fill="#D4A589" d="M19.1,258 M47.1,238.2c3.1-0.5,5.6-1.9,7.4-4.4c1.8-2.3,2.7-5.2,2.7-8.6c0-3.6-1.1-6.5-3.4-8.8
		c-2.2-2.3-5.3-3.5-9.1-3.9c3.1,1,5.5,2.7,7.1,5.1c1.7,2.3,2.5,5.2,2.5,8.4c0,2.8-0.6,5.3-1.8,7.3C51.3,235.2,49.5,236.9,47.1,238.2
		L47.1,238.2z M34.7,241.7v5.9c0,2.7,0.4,4.7,1.1,5.9c0.6,1.2,1.8,1.8,3.4,2.1c0.3,0.1,0.6,0.1,1.1,0.2c1.2,0,1.8,0.5,1.8,1.3
		c0,0.4-0.2,0.7-0.4,0.9c-0.2,0.2-0.6,0.3-1.1,0.3c-0.2,0-1.3-0.1-3.5-0.1c-2.3-0.2-4.4-0.2-6.5-0.2c-2,0-4.2,0-6.5,0.2
		c-2.2,0-3.4,0.1-3.5,0.1c-0.5,0-0.9-0.1-1.1-0.3c-0.2-0.2-0.4-0.5-0.4-0.9c0-0.8,0.7-1.2,1.9-1.3c0.5-0.1,0.8-0.1,1.1-0.2
		c1.8-0.2,3.1-0.8,3.6-1.7c0.6-0.9,0.9-3.2,0.9-6.9v-24.8c0-3.5-0.3-5.9-0.9-6.8c-0.5-0.9-1.8-1.5-3.6-1.8c-0.3,0-0.7,0-1.1-0.1
		c-1.2-0.2-1.9-0.6-1.9-1.3c0-0.5,0.2-0.8,0.4-0.9c0.2-0.2,0.6-0.3,1.1-0.3c0.3,0,1.5,0.1,3.7,0.2c2.2,0,4.3,0.1,6.2,0.1
		c1.2,0,3.3-0.1,6.3-0.4c2.9-0.2,5.3-0.3,7-0.3c5.3,0,9.4,1.3,12.6,4c3,2.6,4.6,6.3,4.6,10.7c0,5.4-2.1,9.4-6.3,12.3
		c-4.2,2.8-10,4.3-17.7,4.3c-0.3,0-0.6,0-1.1,0C35.4,241.7,35,241.7,34.7,241.7L34.7,241.7z M31.3,246v-25.6c0-1.1,0.1-2.2,0.3-3.3
		c0.2-1.2,0.5-2.4,0.9-3.4c-0.2,0-0.6,0-1.1,0s-0.9,0-1.2,0s-0.6,0-1.2,0c-0.6,0-1,0-1.4,0c0.4,0.5,0.6,1.3,0.7,2.5
		c0.1,1.2,0.2,3.6,0.2,7.4v22.3c0,3.9-0.1,6.3-0.2,7.5c-0.1,1.2-0.3,2-0.7,2.5c0.3-0.1,0.7-0.1,1-0.2c0.3,0,0.8,0,1.5,0
		c0.6,0,1.1,0,1.4,0c0.3,0.1,0.5,0.1,0.8,0.2c-0.3-2.1-0.6-3.9-0.8-5.5C31.4,248.7,31.3,247.3,31.3,246L31.3,246z M34.7,239.3h0.6
		c5.6,0,9.7-1.1,12.5-3.2c2.7-2.2,4.2-5.5,4.2-9.8c0-4-1.2-7.1-3.5-9.5c-2.3-2.4-5.5-3.6-9.3-3.6c-1.6,0-2.8,0.5-3.4,1.6
		c-0.6,1.1-0.9,3.6-0.9,7.4V239.3z"/>
	<path fill="#D4A589" d="M60,258 M89.4,212.9c1.3,0.5,2.3,1.1,3.2,1.9c0.9,0.7,1.6,1.6,2.2,2.7c0-0.9,0.1-1.8,0.1-2.6
		c0.2-0.8,0.3-1.6,0.4-2.4L89.4,212.9z M90.1,255.8H97c0.2-1.5,0.3-2.7,0.4-3.4c0.1-0.8,0.3-1.5,0.5-2.1c-0.8,1.1-1.8,2.1-3.1,3.1
		C93.3,254.2,91.8,255,90.1,255.8L90.1,255.8z M67.3,258c-0.9,0-2,0-3.2,0.2c-1.3,0.1-2.1,0.2-2.5,0.2c-0.4,0-0.8-0.1-1.1-0.3
		c-0.2-0.2-0.4-0.6-0.4-1c0-0.8,0.7-1.3,1.9-1.4c0.5-0.1,0.8-0.1,1.1-0.2c1.8-0.2,3.1-0.8,3.7-1.6c0.5-1,0.8-3.2,0.8-6.9v-24.8
		c0-3.5-0.3-5.9-0.8-6.8c-0.6-0.9-1.9-1.5-3.7-1.7c-0.2-0.1-0.6-0.1-1.1-0.2c-1.2-0.2-1.8-0.6-1.8-1.3c0-0.5,0.2-0.8,0.4-1
		c0.2-0.2,0.6-0.3,1.1-0.3c0.3,0,1.1,0,2.4,0c1.2,0.1,2.3,0.1,3.2,0.1h19.2c2.8,0,5.8-0.1,8.5-0.2c0.7-0.1,1.1-0.1,1.3-0.1l0,0
		l1.1,0.2c0.1,0.2,0.3,0.3,0.3,0.4c0.1,0.1,0.1,0.1,0.1,0.2s-0.1,0.4-0.1,0.9c-0.5,2.8-0.8,5.8-0.8,8.7c0,0,0,0.2,0.1,0.6
		c0.1,0.5,0.1,0.8,0.1,1.3c0,0.3-0.2,0.6-0.4,0.8s-0.5,0.3-0.8,0.3c-0.6,0-0.9-0.4-1.1-1.3c-0.1-0.8-0.3-1.4-0.4-1.9
		c-0.9-2.6-2.2-4.5-4-5.6c-1.6-1.1-4-1.6-7-1.6h-2.7c-1.9,0-3.3,0.5-4.1,1.5c-0.6,1.1-1,3.4-1,7v10c1,0,2,0,3.1,0s2.7,0,4.6,0
		c2.8,0,4.9,0,6.3-0.1c1.2-0.1,2.1-0.3,2.5-0.6c0.6-0.3,1.1-1.1,1.5-2.1c0.3-1.1,0.8-1.6,1.4-1.6c0.4,0,0.6,0.1,0.7,0.3
		c0.3,0.2,0.3,0.5,0.3,0.9c0,0.1-0.1,1.1-0.3,3.1c-0.3,2-0.5,4-0.5,5.9c0,0.5,0,1.2,0.1,1.9c0.1,0.7,0.1,1.1,0.1,1.3
		c0,0.2-0.1,0.5-0.4,0.8c-0.2,0.2-0.4,0.3-0.8,0.3c-0.3,0-0.6-0.1-0.8-0.3c-0.2-0.2-0.3-0.4-0.3-0.7s-0.1-0.7-0.2-1.3
		c-0.2-1.8-0.6-3-1.2-3.6c-0.5-0.5-1.3-0.9-2.7-1.1c-1.2-0.2-3.3-0.3-6.3-0.3c-1.8,0-3.1,0-4.3,0c-1,0-1.9,0.1-2.7,0.1l-0.1,10.5
		c0,4.6,0.4,7.3,1.2,8.3c0.8,1.1,2.4,1.6,4.9,1.6c3,0,5.7-0.5,8.4-1.6c2.5-1.2,4.7-2.7,6.4-4.7c0.9-1.1,1.7-2.3,2.4-3.9
		c0.7-1.5,1.2-2.2,1.7-2.2c0.3,0,0.6,0.1,0.9,0.3c0.2,0.2,0.3,0.4,0.3,0.7c0,0.4-0.3,1.8-1.1,4.3s-1.2,4.7-1.4,6.7
		c0,0.1,0,0.2,0,0.3c-0.2,2-0.8,3-2.1,3c0,0-0.2,0-0.5,0c-2.2-0.3-4.5-0.4-6.9-0.4H67.3z M72.2,243.3V226c0-3.2,0.1-6,0.3-7.8
		c0.3-1.8,0.7-3.3,1.3-4.7c-0.3,0-0.8,0-1.4,0c-0.5,0.1-1,0.1-1.3,0.1c-0.3,0-0.7,0-1.4-0.1c-0.5,0-1,0-1.3,0
		c0.4,0.5,0.6,1.3,0.7,2.5c0.1,1.2,0.2,3.6,0.2,7.4v22.3c0,3.9-0.1,6.3-0.2,7.4c-0.1,1.2-0.3,2.1-0.7,2.5c0.5,0,1-0.1,1.4-0.2
		c0.5,0,1,0,1.4,0c0.4,0,0.9,0,1.3,0c0.5,0.1,0.9,0.2,1.3,0.2c-0.6-1.2-1-2.8-1.3-4.7C72.3,249.2,72.2,246.6,72.2,243.3L72.2,243.3z
		"/>
	<path fill="#D4A589" d="M102.9,258 M114.7,232.3c2.9,0.3,5.3,1.6,7.1,3.7c1.7,2.1,2.6,4.8,2.6,8c0,1.1-0.1,2.2-0.4,3.3
		c-0.2,1.1-0.5,2.1-1.1,3.3c1.1-1.2,1.9-2.4,2.4-3.9c0.5-1.3,0.8-2.9,0.8-4.8c0-2.9-0.7-5.4-1.9-7.5c-1.2-2-3-3.5-5.6-4.6v0.1
		C117.1,231,115.8,231.7,114.7,232.3L114.7,232.3z M120.4,225.7c0.8-0.6,1.5-1.3,2-2.2c0.4-0.9,0.6-1.9,0.6-3c0-2.5-0.8-4.5-2.6-5.9
		c-1.7-1.5-4.2-2.2-7.3-2.2c-0.5,0-1,0-1.5,0.1c-0.4,0.1-0.9,0.2-1.4,0.2c-0.2,0.7-0.4,1.3-0.7,1.9c-0.3,0.6-0.6,1.2-0.9,1.7
		c0.6-0.3,1.3-0.6,2.1-0.7c0.8-0.3,1.7-0.3,2.7-0.3c2.3,0,4.3,0.7,5.8,1.9c1.4,1.3,2.1,3.1,2.1,5.3c0,0.4-0.1,0.9-0.2,1.4
		C120.9,224.4,120.7,225.1,120.4,225.7L120.4,225.7z M121.1,228.3c2.6,1,4.7,2.6,6,4.9c1.5,2.2,2.2,4.9,2.2,7.9
		c0,5.2-1.8,9.4-5.7,12.9c-3.6,3.3-8.5,5.1-14.2,5.1c-2.2,0-3.9-0.2-4.9-0.6c-1.1-0.4-1.6-1.1-1.6-1.9c0-2.3,0.1-4.1,0.4-5.1
		c0.3-1.2,0.7-1.7,1.3-1.7c0.3,0,0.7,0.6,1,1.8c0,0.3,0.1,0.4,0.1,0.6c0.4,1.5,0.9,2.6,1.6,3c0.8,0.5,1.8,0.8,3.4,0.8
		c3.5,0,6.4-1.1,8.5-3.2c2.2-2.1,3.2-4.9,3.2-8.4c0-3.2-0.8-5.8-2.6-7.7c-1.7-1.9-4.1-2.8-7-2.8c-0.4,0-0.9,0-1.5,0.1
		c-0.7,0-1.1,0.1-1.3,0.1c-0.3,0-0.6-0.1-0.9-0.3c-0.1-0.2-0.2-0.5-0.2-0.9c0-0.5,0.5-0.8,1.4-1c0.6-0.1,1-0.2,1.3-0.3
		c2.7-0.9,4.8-2,6.1-3.4c1.3-1.3,1.9-2.8,1.9-4.7c0-2.1-0.5-3.6-1.8-4.9c-1.1-1.2-2.6-1.7-4.8-1.7c-2,0-3.9,0.7-5.4,2
		c-1.5,1.3-2.3,2-2.4,2c-0.2,0-0.5-0.1-0.7-0.3c-0.1-0.2-0.2-0.4-0.2-0.7s0.4-1,1.3-2.3c0.8-1.2,1.4-2.5,1.9-3.7
		c0.1-0.1,0.1-0.4,0.3-0.9c0.5-1.2,0.8-2,1.1-2.2c0.2-0.2,0.7-0.4,1.6-0.5c0.7,0,1.9-0.1,3.4-0.1c3.7,0,6.8,0.8,8.9,2.5
		c2,1.6,3.1,4.1,3.1,7c0,1.7-0.4,3.2-1.2,4.8C124.1,225.7,122.9,227,121.1,228.3L121.1,228.3z"/>
	<path fill="#D4A589" d="M179.7,258 M138.2,247.4c7.6-8.3,13.9-15.4,18.7-21.3c5-5.9,8.3-10.2,10-13.1c0.5,0.2,1,0.3,1.4,0.4
		c0.5,0.1,1,0.1,1.3,0.1c0.2,0,0.3,0,0.6,0c0.2,0,0.3,0,0.4,0c-5.6,7.3-12.2,15.3-19.8,24.1c-7.5,8.7-11.9,14.1-12.8,16.1V247.4z
		 M170.9,216v24.4c0,6.2-0.3,10-0.8,11.8c-0.4,1.7-1.3,2.8-2.7,3.1c-0.4,0.2-1.2,0.2-2.1,0.4c-1.4,0.1-2.1,0.6-2.1,1.4
		c0,0.4,0.1,0.7,0.4,0.9c0.2,0.2,0.6,0.3,1.1,0.3c0.2,0,1.2-0.1,2.8-0.1c1.6-0.2,3.2-0.2,4.6-0.2c1.2,0,2.5,0,4,0.2
		c1.4,0,2.2,0.1,2.4,0.1c0.5,0,0.8-0.1,1-0.3c0.2-0.2,0.3-0.5,0.3-0.9c0-0.8-0.6-1.3-1.8-1.4c-0.8-0.2-1.4-0.2-1.8-0.4
		c-1.2-0.3-2-1.4-2.4-3.1c-0.4-1.7-0.6-5.6-0.6-11.7v-18.3c0-3.7,0.2-6,0.6-6.9c0.5-0.9,1.4-1.4,2.8-1.7c0.2,0,0.5,0,0.8-0.1
		c1-0.2,1.4-0.6,1.4-1.3c0-0.5,0-0.8-0.2-0.9c-0.2-0.2-0.5-0.3-0.9-0.3c-0.2,0-0.9,0.1-2,0.2s-2.1,0.2-3,0.2c-1.9,0-3.9-0.1-5.7-0.3
		c-0.3-0.1-0.5-0.1-0.6-0.1c-0.6,0-1.6,1-3,3c-0.7,1-1.3,1.8-1.7,2.4c-4,5.1-11.1,13.6-21.8,25.5l-1.5,1.7v-14.9
		c0-6.1,0.2-10,0.7-11.8c0.4-1.7,1.3-2.9,2.7-3.4c0.5,0,1-0.1,1.8-0.1c1.6-0.1,2.4-0.5,2.4-1.4c0-0.4-0.2-0.7-0.4-0.8
		c-0.2-0.2-0.6-0.3-1.1-0.3c-0.3,0-1.3,0.1-2.9,0.2c-1.6,0.1-3,0.2-4.5,0.2c-1.1,0-2.4-0.1-3.9-0.2c-1.4-0.1-2.2-0.2-2.5-0.2
		c-0.5,0-0.8,0.1-1,0.3c-0.2,0.1-0.3,0.4-0.3,0.8c0,0.8,0.6,1.3,1.9,1.3c0.8,0.1,1.3,0.2,1.7,0.2c1.2,0.5,2,1.6,2.4,3.3
		c0.4,1.7,0.6,5.6,0.6,11.8v28.2c0,0.8,0.1,1.4,0.3,1.7c0.1,0.4,0.4,0.6,0.7,0.6c0.5,0,0.8-0.4,1.2-1.4c0.1-0.4,0.2-0.8,0.4-1
		c0.5-1.4,1.3-2.7,2.2-4.2c1-1.3,2.2-3,3.9-5c0.1-0.2,3.2-3.9,9.5-10.9C160.4,229.6,165.9,222.7,170.9,216L170.9,216z"/>
	<path fill="#D4A589" d="M233.5,258 M262.9,212.9c1.3,0.5,2.3,1.1,3.2,1.9c0.9,0.7,1.6,1.6,2.2,2.7c0-0.9,0.1-1.8,0.1-2.6
		c0.2-0.8,0.2-1.6,0.4-2.4L262.9,212.9z M263.6,255.8h6.9c0.1-1.5,0.3-2.7,0.4-3.4c0.1-0.8,0.3-1.5,0.5-2.1
		c-0.8,1.1-1.8,2.1-3.2,3.1C266.9,254.2,265.4,255,263.6,255.8L263.6,255.8z M240.8,258c-0.9,0-2,0-3.2,0.2
		c-1.4,0.1-2.2,0.2-2.5,0.2c-0.5,0-0.8-0.1-1.1-0.3c-0.2-0.2-0.4-0.6-0.4-1c0-0.8,0.7-1.3,1.8-1.4c0.6-0.1,0.9-0.1,1.2-0.2
		c1.8-0.2,3.1-0.8,3.7-1.6c0.5-1,0.8-3.2,0.8-6.9v-24.8c0-3.5-0.3-5.9-0.8-6.8c-0.6-0.9-1.9-1.5-3.7-1.7c-0.2-0.1-0.6-0.1-1.2-0.2
		c-1.1-0.2-1.7-0.6-1.7-1.3c0-0.5,0.1-0.8,0.4-1c0.2-0.2,0.5-0.3,1.1-0.3c0.3,0,1.1,0,2.4,0c1.2,0.1,2.3,0.1,3.2,0.1H260
		c2.8,0,5.8-0.1,8.5-0.2c0.7-0.1,1.1-0.1,1.3-0.1l0,0l1.1,0.2c0.1,0.2,0.3,0.3,0.3,0.4c0.1,0.1,0.1,0.1,0.1,0.2s-0.1,0.4-0.1,0.9
		c-0.6,2.8-0.8,5.8-0.8,8.7c0,0,0,0.2,0.1,0.6c0.1,0.5,0.1,0.8,0.1,1.3c0,0.3-0.2,0.6-0.4,0.8c-0.2,0.2-0.5,0.3-0.8,0.3
		c-0.6,0-0.9-0.4-1.1-1.3c-0.1-0.8-0.3-1.4-0.4-1.9c-0.9-2.6-2.2-4.5-4-5.6c-1.6-1.1-4-1.6-7-1.6h-2.7c-2,0-3.3,0.5-4.1,1.5
		c-0.6,1.1-1,3.4-1,7v10c1,0,2,0,3.1,0s2.6,0,4.6,0c2.8,0,4.9,0,6.2-0.1c1.3-0.1,2.2-0.3,2.6-0.6c0.6-0.3,1.1-1.1,1.4-2.1
		c0.4-1.1,0.9-1.6,1.5-1.6c0.4,0,0.6,0.1,0.7,0.3c0.3,0.2,0.3,0.5,0.3,0.9c0,0.1-0.1,1.1-0.3,3.1c-0.3,2-0.5,4-0.5,5.9
		c0,0.5,0,1.2,0.1,1.9c0.1,0.7,0.1,1.1,0.1,1.3c0,0.2-0.1,0.5-0.4,0.8c-0.2,0.2-0.4,0.3-0.8,0.3c-0.3,0-0.6-0.1-0.8-0.3
		c-0.2-0.2-0.3-0.4-0.4-0.7c0-0.3,0-0.7-0.1-1.3c-0.2-1.8-0.6-3-1.2-3.6c-0.5-0.5-1.4-0.9-2.7-1.1c-1.2-0.2-3.3-0.3-6.3-0.3
		c-1.8,0-3.2,0-4.3,0c-1,0-1.9,0.1-2.7,0.1l-0.1,10.5c0,4.6,0.4,7.3,1.2,8.3c0.8,1.1,2.4,1.6,4.9,1.6c2.9,0,5.7-0.5,8.4-1.6
		c2.5-1.2,4.7-2.7,6.4-4.7c0.9-1.1,1.7-2.3,2.4-3.9c0.6-1.5,1.2-2.2,1.7-2.2c0.3,0,0.6,0.1,0.8,0.3c0.3,0.2,0.4,0.4,0.4,0.7
		c0,0.4-0.4,1.8-1.1,4.3c-0.8,2.4-1.2,4.7-1.4,6.7c0,0.1,0,0.2,0,0.3c-0.2,2-0.8,3-2.1,3c-0.1,0-0.2,0-0.5,0
		c-2.2-0.3-4.5-0.4-6.9-0.4H240.8z M245.7,243.3V226c0-3.2,0.2-6,0.4-7.8c0.3-1.8,0.7-3.3,1.2-4.7c-0.3,0-0.7,0-1.3,0
		c-0.6,0.1-1,0.1-1.3,0.1s-0.7,0-1.4-0.1c-0.5,0-1,0-1.3,0c0.4,0.5,0.6,1.3,0.7,2.5c0.1,1.2,0.2,3.6,0.2,7.4v22.3
		c0,3.9-0.1,6.3-0.2,7.4c-0.1,1.2-0.3,2.1-0.7,2.5c0.5,0,1-0.1,1.4-0.2c0.5,0,1,0,1.4,0c0.4,0,0.9,0,1.3,0c0.4,0.1,0.9,0.2,1.2,0.2
		c-0.5-1.2-0.9-2.8-1.2-4.7C245.9,249.2,245.7,246.6,245.7,243.3L245.7,243.3z"/>
	<path fill="#D4A589" d="M277,258 M290.9,235.4v11.7c0,2.7,0.3,4.7,0.7,6c0.5,1.2,1.3,2,2.3,2.4c0.4,0.1,1,0.2,1.6,0.2
		c1.3,0.1,2,0.6,2,1.4c0,0.4-0.2,0.7-0.3,0.9c-0.2,0.2-0.6,0.3-1,0.3c-0.2,0-1.3-0.1-3.2-0.1c-2-0.2-4-0.2-5.8-0.2
		c-1.8,0-3.7,0-5.8,0.2c-1.9,0-3.1,0.1-3.2,0.1c-0.4,0-0.7-0.1-0.9-0.3c-0.2-0.2-0.3-0.5-0.3-0.9c0-0.8,0.5-1.2,1.6-1.4
		c0.4,0,0.7-0.1,1-0.2c1.6-0.2,2.7-0.8,3.2-1.6c0.6-0.9,0.8-3.2,0.8-6.9v-24.8c0-3.5-0.2-5.9-0.8-6.8c-0.5-0.9-1.6-1.5-3.2-1.8
		c-0.3,0-0.6,0-1-0.1c-1.1-0.2-1.6-0.6-1.6-1.3c0-0.5,0.1-0.8,0.3-0.9c0.2-0.2,0.5-0.3,1-0.3c0.1,0,1.2,0.1,3.2,0.2
		c1.9,0.2,3.9,0.2,5.7,0.2c1.8,0,3.7,0,5.8-0.2c1.9-0.1,3-0.2,3.2-0.2c0.4,0,0.8,0.1,1,0.3c0.2,0.1,0.3,0.4,0.3,0.8
		c0,0.8-0.7,1.3-1.9,1.3c-0.7,0.1-1.2,0.2-1.7,0.2c-1,0.5-1.8,1.3-2.3,2.6c-0.4,1.2-0.7,3.2-0.7,6v10h24.2v-10
		c0-3.5-0.2-5.9-0.7-6.8c-0.6-0.9-1.7-1.5-3.3-1.8c-0.2,0-0.6,0-1-0.1c-1.1-0.2-1.7-0.6-1.7-1.3c0-0.4,0.2-0.7,0.4-0.9
		c0.2-0.2,0.6-0.3,1-0.3c0.1,0,1.2,0.1,3.2,0.2c1.9,0.2,3.9,0.2,5.8,0.2c1.8,0,3.7,0,5.7-0.2c2-0.1,3.1-0.2,3.2-0.2
		c0.5,0,0.8,0.1,1,0.3c0.2,0.1,0.3,0.4,0.3,0.8c0,0.8-0.6,1.3-1.9,1.3c-0.7,0.1-1.2,0.2-1.7,0.2c-1.1,0.5-1.9,1.6-2.4,3.4
		c-0.4,1.8-0.6,5.8-0.6,11.8v11.7c0,6.1,0.2,10,0.6,11.8c0.5,1.7,1.3,2.8,2.4,3.3c0.4,0.1,1,0.2,1.7,0.2c1.3,0.1,1.9,0.6,1.9,1.4
		c0,0.4-0.1,0.7-0.3,0.9c-0.2,0.2-0.5,0.3-1,0.3c-0.1,0-1.2-0.1-3.2-0.1c-1.9-0.2-3.9-0.2-5.7-0.2c-1.9,0-3.9,0-5.9,0.2
		c-1.9,0-3,0.1-3.2,0.1c-0.4,0-0.7-0.1-0.9-0.3c-0.2-0.2-0.4-0.5-0.4-0.9c0-0.8,0.6-1.2,1.7-1.4c0.4,0,0.8-0.1,1-0.2
		c1.6-0.2,2.7-0.8,3.3-1.6c0.5-0.9,0.7-3.2,0.7-6.9v-11.6H290.9z M319.3,243.3V226c0-3.2,0.1-6,0.3-7.8c0.3-1.8,0.6-3.3,1.1-4.7
		c-0.3,0-0.6,0-1.2,0c-0.5,0-0.9,0-1.1,0c-0.3,0-0.7,0-1.3,0c-0.5,0-0.9,0-1.1,0c0.2,0.4,0.4,1.2,0.5,2.2c0.1,1.1,0.2,2.9,0.2,5.6
		v2.1V248c0,2.5-0.1,4.4-0.2,5.5c-0.1,1-0.3,1.8-0.5,2.3c0.4-0.1,0.8-0.2,1.3-0.2c0.4-0.1,0.7-0.1,1.1-0.1c0.4,0,0.8,0,1.2,0.1
		c0.4,0.1,0.8,0.1,1.1,0.2c-0.5-1.3-0.8-2.9-1.1-4.8C319.4,249.2,319.3,246.6,319.3,243.3L319.3,243.3z M287.9,243.3V226
		c0-3.5,0.1-6.2,0.3-7.9c0.2-1.9,0.6-3.3,1.1-4.6c-0.3,0-0.7,0-1.2,0c-0.5,0-0.9,0-1.2,0c-0.2,0-0.6,0-1.2,0c-0.5,0-0.9,0-1.2,0
		c0.4,0.5,0.6,1.3,0.6,2.5c0.1,1.2,0.2,3.6,0.2,7.4v22.3c0,3.9-0.1,6.3-0.2,7.5c0,1.2-0.2,2-0.6,2.5c0.5-0.1,0.9-0.1,1.3-0.2
		c0.4-0.1,0.8-0.1,1.2-0.1c0.4,0,0.8,0,1.2,0.1c0.4,0.1,0.8,0.1,1.1,0.2c-0.5-1.3-0.9-2.8-1.1-4.6
		C288,249.4,287.9,246.8,287.9,243.3L287.9,243.3z"/>
	<path fill="#D4A589" d="M340.3,223.2v13.6c0,5.1,0.9,9.1,2.8,12.2c1.9,3.1,4.7,5.3,8.4,6.4c-3-2.1-5.3-4.7-6.5-7.4
		c-1.3-2.8-2-6.7-2-11.7v-10.6c0-3.1,0.2-5.6,0.4-7.5c0.2-1.8,0.6-3.4,1.2-4.7c-0.3,0-0.7,0-1.3,0.1c-0.6,0.1-1,0.1-1.3,0.1
		c-0.2,0-0.7,0-1.2-0.1c-0.6-0.1-1-0.1-1.3-0.1c0.3,0.4,0.5,1.2,0.6,2.2c0.1,1,0.2,2.8,0.2,5.4V223.2z M385.5,211.4
		c0.1,0.1,0.2,0.3,0.2,0.6c0,0.2-0.1,0.4-0.2,0.5V211.4z M372.3,258.1c-0.4,0-13.8,0-14.2,0c-6.2-0.3-10.8-2-14.2-5.4
		c-3.5-3.6-5.3-9.1-5.3-16.2v-14.7c0-3.4-0.3-5.7-0.9-6.6c-0.6-0.8-1.8-1.4-3.6-1.6c-0.2-0.1-0.6-0.1-1.1-0.2
		c-1.1-0.2-1.7-0.6-1.7-1.4c0-0.4,0.1-0.7,0.3-0.8c0.3-0.2,0.6-0.3,1.2-0.3c0.1,0,1.3,0.1,3.4,0.2c2.1,0.2,4.3,0.2,6.3,0.2
		c1.9,0,4.1,0,6.2-0.2c2.2-0.1,3.3-0.2,3.5-0.2c0.5,0,0.9,0.1,1.1,0.3c0.3,0.1,0.4,0.4,0.4,0.8c0,0.8-0.7,1.2-2,1.3
		c-0.9,0.1-1.5,0.2-2,0.3c-1.2,0.4-2.1,1.4-2.5,3.1c-0.5,1.7-0.7,5.5-0.7,11.5v7.3c0,6.9,1.1,11.9,3.3,15.2c1.9,2.7,4.7,4.4,8.4,4.8
		c0.3,0,13.7,0.1,14.1,0.1V258.1z"/>
	<path fill="#D4A589" d="M388.3,212.1 M431,222.7c-7.9,8.3-14.3,15.4-19.4,21.3c-5.1,5.9-8.5,10.2-10.2,13.1
		c-0.6-0.1-1.1-0.3-1.5-0.4c-0.5,0-1-0.1-1.4-0.1c-0.1,0-0.2,0-0.5,0.1c-0.2,0-0.3,0-0.5,0c5.8-7.3,12.6-15.4,20.3-24.1
		c7.8-8.8,12.3-14.2,13.3-16.2V222.7z M397.4,254.1v-24.4c0-6.1,0.3-10,0.7-11.8c0.5-1.7,1.4-2.7,2.8-3.1c0.5-0.2,1.2-0.2,2.2-0.4
		c1.4-0.1,2.2-0.6,2.2-1.4c0-0.4-0.2-0.7-0.4-0.9c-0.3-0.2-0.7-0.3-1.2-0.3c-0.2,0-1.2,0.1-2.9,0.2c-1.6,0.1-3.2,0.2-4.7,0.2
		c-1.2,0-2.5-0.1-4-0.2c-1.5-0.1-2.3-0.2-2.6-0.2c-0.4,0-0.8,0.1-1,0.3c-0.2,0.2-0.3,0.5-0.3,0.9c0,0.8,0.6,1.3,1.9,1.4
		c0.8,0.2,1.4,0.2,1.8,0.4c1.2,0.4,2,1.4,2.4,3.1c0.5,1.7,0.7,5.6,0.7,11.7v18.3c0,3.7-0.2,6-0.7,6.9c-0.4,0.9-1.4,1.4-2.8,1.7
		c-0.2,0.1-0.5,0.1-0.8,0.1c-1,0.2-1.5,0.6-1.5,1.4c0,0.4,0.1,0.7,0.3,0.8c0.2,0.2,0.4,0.3,0.8,0.3c0.3,0,1-0.1,2.1-0.1
		c1.2-0.2,2.2-0.2,3.1-0.2c2,0,4,0,5.9,0.2c0.3,0.1,0.5,0.1,0.6,0.1c0.6,0,1.6-1,3-3c0.8-1,1.4-1.8,1.8-2.4
		c4.1-5.1,11.5-13.6,22.4-25.5l1.6-1.6v14.8c0,6.1-0.3,10-0.8,11.8c-0.4,1.7-1.4,2.9-2.8,3.4c-0.5,0.1-1.1,0.1-1.9,0.1
		c-1.6,0.1-2.4,0.6-2.4,1.4c0,0.4,0.2,0.7,0.4,0.8c0.2,0.2,0.6,0.3,1.2,0.3c0.2,0,1.2-0.1,2.9-0.1c1.7-0.2,3.2-0.2,4.7-0.2
		c1.1,0,2.4,0,3.9,0.2c1.5,0,2.4,0.1,2.6,0.1c0.5,0,0.8-0.1,1-0.3c0.3-0.1,0.4-0.4,0.4-0.8c0-0.8-0.7-1.3-2-1.3
		c-0.8-0.1-1.4-0.1-1.8-0.2c-1.2-0.4-2-1.5-2.4-3.3c-0.4-1.7-0.6-5.6-0.6-11.8v-28.2c0-0.8-0.1-1.3-0.3-1.7
		c-0.1-0.4-0.4-0.6-0.7-0.6c-0.5,0-0.9,0.4-1.2,1.4c-0.2,0.4-0.3,0.8-0.4,1c-0.6,1.4-1.4,2.7-2.4,4.2c-1,1.4-2.3,3-4,5
		c-0.1,0.2-3.3,3.9-9.7,10.9C408.2,240.6,402.6,247.4,397.4,254.1L397.4,254.1z"/>
	<path fill="#D4A589" d="M489.8,258 M464,233.8c-2.8-0.5-5.1-1.7-6.7-3.4c-1.5-1.9-2.2-4.3-2.2-7.1c0-2.7,0.7-4.9,2.1-6.8
		c1.5-2,3.3-3.2,5.8-3.7c-1.7,1.2-3,2.7-4,4.5c-0.9,1.7-1.3,3.6-1.3,5.8c0,2.3,0.5,4.4,1.5,6.3C460.3,231.1,462,232.5,464,233.8
		L464,233.8z M474.2,233.4h-3.3c-3.5,0-6.3-0.9-8.2-2.7c-2-1.8-2.9-4.5-2.9-7.7c0-3,0.8-5.5,2.5-7.3c1.7-1.9,4-2.8,6.7-2.8
		c2.2,0,3.5,0.5,4.3,1.5c0.6,1.1,1,4,1,8.6V233.4z M466.1,235.7h3.1c-5.2,7.3-9.4,12.6-12.9,15.9c-3.4,3.3-6.4,5-8.6,5
		c-0.5,0-0.8,0-1.3,0c-0.3-0.1-0.7-0.1-1-0.2c2.1-0.3,5.1-2.3,8.6-6C457.6,246.9,461.6,241.9,466.1,235.7L466.1,235.7z M474.2,235.7
		v4.7c0,6.2-0.2,10.2-0.6,11.9c-0.5,1.7-1.3,2.7-2.4,3.2c-0.4,0.1-1,0.2-1.6,0.2c-1.4,0.1-2.1,0.5-2.1,1.4c0,0.4,0.1,0.7,0.4,0.9
		c0.2,0.2,0.5,0.3,0.9,0.3c0.2,0,1.3-0.1,3.3-0.1c2.1-0.2,4.2-0.2,6.1-0.2c2,0,4.3,0,6.5,0.2c2.2,0,3.4,0.1,3.6,0.1
		c0.5,0,0.9-0.1,1.1-0.3c0.2-0.2,0.4-0.5,0.4-0.9c0-0.8-0.7-1.3-1.8-1.4c-0.6-0.1-0.9-0.1-1.2-0.2c-1.8-0.2-3.1-0.8-3.7-1.7
		c-0.5-0.9-0.8-3.1-0.8-6.8v-24.8c0-3.5,0.3-5.9,0.8-6.8c0.6-0.9,1.9-1.5,3.7-1.8c0.3,0,0.6,0,1.1-0.1c1.2-0.2,1.8-0.6,1.8-1.3
		c0-0.5-0.1-0.8-0.4-0.9c-0.2-0.2-0.5-0.3-1.1-0.3c-0.2,0-1.3,0.1-3.5,0.2c-2.2,0-4.4,0.1-6.3,0.1c-1.5,0-3.6-0.1-6.3-0.4
		c-2.6-0.2-4.6-0.3-5.7-0.3c-4.5,0-8.2,1.1-10.8,3.4c-2.7,2.2-4.1,5.3-4.1,9.1c0,3.1,0.9,5.9,2.9,8c2,2,4.8,3.4,8.3,4.1
		c-4.2,5.2-7.8,9.4-10.8,12.8c-2.9,3.3-5.3,5.5-6.8,6.6c-0.5,0.2-1.1,0.5-1.9,0.9c-0.8,0.3-1.3,0.7-1.3,1.2c0,0.5,0.5,0.9,1.3,1.2
		c0.8,0.4,1.9,0.5,3.3,0.5c5.6,0,13.5-6.9,23.9-20.7l1.5-1.9H474.2z M477.7,243.2v-22.9c0-1.1-0.1-2.2-0.3-3.3
		c-0.3-1.2-0.5-2.4-0.9-3.4c0.2,0,0.6,0,1.1,0s0.9,0,1.2,0c0.2,0,0.6,0,1.2,0s1,0,1.4,0c-0.4,0.5-0.6,1.3-0.7,2.5
		c-0.1,1.2-0.2,3.6-0.2,7.4v22.3c0,3.7,0.1,6.2,0.2,7.3c0.1,1.3,0.3,2.1,0.7,2.6c-0.5,0-1-0.1-1.4-0.2c-0.5,0-1,0-1.4,0
		c-0.4,0-0.9,0-1.3,0c-0.4,0.1-0.9,0.2-1.2,0.2c0.5-1.2,0.9-2.8,1.2-4.8C477.5,249,477.7,246.5,477.7,243.2L477.7,243.2z"/>
	<path fill="#D4A589" d="M514.3,212.6 M554.4,223.2c-7.3,8.3-13.4,15.4-18,21.4c-4.8,5.9-8,10.2-9.6,13c-0.5-0.1-1-0.2-1.4-0.3
		c-0.5-0.1-0.9-0.2-1.3-0.2c-0.1,0-0.2,0-0.5,0.1c-0.2,0-0.3,0-0.4,0c5.4-7.3,11.8-15.3,18.9-24.1c7.3-8.8,11.5-14.2,12.4-16.1
		V223.2z M523,254.6v-24.4c0-6.1,0.2-10,0.7-11.7c0.4-1.7,1.3-2.8,2.6-3.2c0.4-0.1,1.1-0.2,2-0.3c1.4-0.2,2-0.6,2-1.4
		c0-0.4-0.1-0.7-0.3-1c-0.3-0.2-0.7-0.3-1.2-0.3c-0.1,0-1.1,0.1-2.6,0.2c-1.5,0.1-3,0.2-4.4,0.2c-1.2,0-2.4-0.1-3.7-0.2
		c-1.4-0.1-2.2-0.2-2.4-0.2c-0.4,0-0.8,0.1-0.9,0.3c-0.2,0.3-0.4,0.6-0.4,1c0,0.8,0.6,1.2,1.8,1.4c0.7,0.1,1.4,0.2,1.7,0.3
		c1.2,0.4,1.9,1.4,2.3,3.2c0.4,1.6,0.6,5.5,0.6,11.7v18.2c0,3.7-0.2,6.1-0.6,7c-0.4,0.8-1.3,1.3-2.6,1.6c-0.2,0.1-0.5,0.1-0.8,0.2
		c-1,0.1-1.4,0.6-1.4,1.3c0,0.4,0,0.7,0.2,0.9c0.2,0.2,0.5,0.3,0.8,0.3c0.3,0,0.9-0.1,2-0.2c1.1-0.1,2-0.2,2.9-0.2
		c1.8,0,3.6,0.1,5.5,0.3c0.3,0.1,0.5,0.1,0.5,0.1c0.6,0,1.5-1.1,2.9-3c0.7-1,1.3-1.8,1.7-2.4c3.7-5.2,10.7-13.6,21-25.5l1.4-1.7
		v14.8c0,6.2-0.2,10-0.7,11.9c-0.4,1.7-1.3,2.8-2.6,3.3c-0.4,0.1-1,0.2-1.7,0.2c-1.5,0.1-2.3,0.5-2.3,1.4c0,0.3,0.1,0.6,0.3,0.8
		c0.3,0.2,0.6,0.3,1.1,0.3c0.3,0,1.2-0.1,2.8-0.2c1.6-0.1,2.9-0.2,4.3-0.2c1.1,0,2.4,0.1,3.7,0.2c1.3,0.1,2.1,0.2,2.4,0.2
		c0.4,0,0.7-0.1,0.9-0.3c0.3-0.2,0.3-0.5,0.3-0.8c0-0.8-0.6-1.3-1.8-1.3c-0.7-0.1-1.3-0.2-1.6-0.3c-1.2-0.4-1.9-1.5-2.3-3.2
		c-0.4-1.7-0.6-5.7-0.6-11.8v-28.2c0-0.8-0.1-1.4-0.3-1.8c-0.1-0.3-0.3-0.6-0.7-0.6s-0.8,0.5-1.1,1.4c-0.1,0.5-0.2,0.8-0.4,1.1
		c-0.5,1.3-1.3,2.6-2.1,4.1c-1,1.4-2.2,3.1-3.7,5.1c-0.1,0.1-3.1,3.9-9.1,10.9C533.1,241.1,527.7,248,523,254.6L523,254.6z"/>
	<path fill="#D4A589" d="M561.3,258.5 M579.9,257c-4.3-2.1-7.5-5.2-9.7-8.9c-2.3-3.7-3.4-7.9-3.4-12.7c0-5,1-9.4,3.3-13.2
		c2.3-3.9,5.6-6.9,9.9-9.1c-4.9,0.8-8.8,3.2-11.9,7.3c-3,4.1-4.6,9-4.6,14.7c0,5.5,1.5,10.2,4.6,14.3
		C571.3,253.5,575.1,256.1,579.9,257L579.9,257z M587.2,260.1c-3.4,0-6.7-0.5-9.6-1.6c-3-1.1-5.7-2.6-8.1-4.8
		c-2.6-2.4-4.7-5.3-6.1-8.4s-2.1-6.6-2.1-10.1c0-4,0.8-7.7,2.6-11.1c1.8-3.5,4.4-6.6,7.5-9c2.2-1.6,4.6-2.8,7.2-3.6
		c2.6-0.8,5.4-1.2,8.4-1.2c2.2,0,5,0.5,7.8,1.3c2.8,0.8,4.8,1.3,5.4,1.3c1,0,1.7-0.4,2.3-1c0.6-0.7,1-1.1,1.2-1.1
		c0.3,0,0.6,0.1,0.8,0.3c0.2,0.2,0.3,0.4,0.3,0.6c0,0.1-0.1,0.2-0.2,0.5c-0.4,1.9-0.7,4.1-0.7,6.3c0,1.5,0.2,3.3,0.5,5.2
		c0.1,0.5,0.1,0.7,0.1,0.9c0,0.4-0.1,0.6-0.3,0.9c-0.1,0.2-0.4,0.3-0.8,0.3c-0.6,0-1.1-0.6-1.5-2c-0.2-0.5-0.3-0.9-0.5-1.2
		c-1-3.2-2.7-5.6-5.1-7.1c-2.2-1.5-5.2-2.2-8.9-2.2c-5,0-9,1.9-12.3,5.9c-3.1,4-4.8,9.1-4.8,15.4c0,6.8,1.7,12.4,5.2,16.6
		c3.3,4.2,7.8,6.4,13.3,6.4c3,0,5.6-0.7,7.4-1.9c2-1.3,3.5-3.3,4.9-6.2c0.3-0.7,0.6-1.7,1-2.9c0.5-1.7,1-2.5,1.6-2.5
		c0.4,0,0.7,0.1,0.9,0.3c0.3,0.2,0.5,0.5,0.5,0.7c0,0.1-0.3,1.4-0.9,4.3c-0.6,2.8-0.9,5.5-0.9,8.1v1c0,0.3-0.1,0.5-0.3,0.7
		c-0.1,0.1-0.3,0.2-0.7,0.2c-0.1,0-0.5-0.1-1-0.1c-0.5-0.1-0.9-0.2-1.3-0.2c-0.4,0-2.1,0.2-5,0.7
		C592.2,259.9,589.5,260.1,587.2,260.1L587.2,260.1z"/>
	<path fill="#D4A589" d="M609.1,258.5 M627.7,234.4l-3,2.6v4c0,6.1,0.2,10,0.8,11.8c0.4,1.8,1.3,2.9,2.6,3.3
		c0.4,0.1,1.1,0.1,1.8,0.1c1.5,0.1,2.2,0.6,2.2,1.4c0,0.5-0.2,0.7-0.4,1c-0.2,0.2-0.6,0.3-1.1,0.3c-0.2,0-1.4-0.1-3.5-0.2
		c-2.3-0.1-4.4-0.2-6.5-0.2c-2,0-4.2,0.1-6.5,0.2c-2.2,0.1-3.4,0.2-3.5,0.2c-0.6,0-0.9-0.1-1.1-0.3c-0.3-0.3-0.4-0.5-0.4-1
		c0-0.7,0.6-1.1,1.8-1.4c0.5,0,0.9,0,1.2-0.1c1.8-0.2,3-0.8,3.6-1.7c0.6-0.9,0.9-3.1,0.9-6.9v-24.7c0-3.6-0.3-5.9-0.9-6.8
		c-0.6-1-1.8-1.5-3.6-1.8c-0.3-0.1-0.7-0.1-1.1-0.2c-1.3-0.1-1.9-0.6-1.9-1.3c0-0.4,0.1-0.7,0.4-0.9c0.2-0.2,0.6-0.3,1.1-0.3
		c0.2,0,1.4,0.1,3.6,0.3c2.2,0.1,4.4,0.2,6.4,0.2c2,0,4.1-0.1,6.1-0.2c2-0.2,3-0.3,3.1-0.3c0.5,0,0.8,0.1,1,0.3
		c0.3,0.2,0.3,0.5,0.3,0.8c0,0.9-0.5,1.4-1.8,1.4c-0.7,0-1.3,0.1-1.7,0.2c-1.1,0.4-1.9,1.5-2.2,3.2c-0.5,1.6-0.7,5.7-0.7,12v4.7
		l15.2-13.6c1.5-1.4,2.5-2.4,3.1-3.1c0.6-0.7,0.9-1.2,0.9-1.7c0-0.6-0.7-1.1-2-1.4c-1.4-0.4-2-0.8-2-1.4c0-0.5,0.1-0.7,0.3-1
		c0.2-0.2,0.7-0.3,1.2-0.3c0.4,0,1.5,0.1,3.3,0.3c1.7,0.1,3.3,0.2,4.7,0.2c1.1,0,2.3-0.1,3.9-0.2c1.4-0.2,2.3-0.3,2.5-0.3
		c0.6,0,1,0.1,1.2,0.3s0.3,0.5,0.3,0.9c0,0.6-0.7,1-2.1,1.4c-0.1,0-0.2,0.1-0.3,0.1c-1.8,0.3-3.6,1.1-5.6,2.1
		c-1.9,1.1-4.1,2.5-6.2,4.4l-9.4,8.3l15,20c2,2.7,3.6,4.6,4.7,5.5c1.1,1,2.2,1.5,3.2,1.7c0.3,0.1,0.8,0.1,1.3,0.2
		c1.1,0.2,1.7,0.5,1.7,1.1c0,0.5-0.1,0.9-0.3,1.1c-0.3,0.2-0.7,0.4-1.2,0.4c-0.1,0-1.1-0.1-3.1-0.2c-2.1-0.1-4.2-0.2-6.2-0.2
		s-4.1,0.1-6.1,0.2c-2,0.1-3.1,0.2-3.1,0.2c-0.5,0-0.8-0.1-1.1-0.3c-0.2-0.3-0.3-0.5-0.3-1c0-0.3,0-0.5,0.1-0.7
		c0.2-0.2,0.3-0.4,0.5-0.4c0.2-0.1,0.6-0.2,1.1-0.3c1.3-0.3,2-0.8,2-1.4c0-0.6-0.2-1.3-0.7-2.2c-0.4-0.8-1.1-1.8-1.9-3L627.7,234.4z
		 M621.3,243.8v-17.2c0-3.5,0.1-6.2,0.3-8c0.3-1.8,0.7-3.3,1.2-4.6c-0.3,0-0.7,0-1.3,0c-0.6,0.1-1,0.1-1.3,0.1c-0.3,0-0.7,0-1.4-0.1
		c-0.6,0-1,0-1.3,0c0.4,0.5,0.6,1.4,0.6,2.5c0.2,1.2,0.3,3.6,0.3,7.4v22.4c0,3.7-0.1,6.3-0.3,7.4c0,1.2-0.2,2-0.6,2.5
		c0.5-0.1,0.9-0.1,1.4-0.1c0.5-0.1,0.9-0.1,1.4-0.1c0.4,0,0.8,0,1.3,0.1c0.4,0,0.8,0,1.2,0.1c-0.5-1.2-0.9-2.8-1.2-4.6
		C621.4,249.9,621.3,247.3,621.3,243.8L621.3,243.8z M629,233.2l11.1,14.7c1.6,2.2,2.6,3.7,3.1,4.7c0.5,0.9,0.7,1.7,0.7,2.3
		c0,0.3,0,0.5-0.1,0.8c0,0.2,0,0.4-0.2,0.6c0.7-0.1,1.3-0.1,2-0.1c0.6-0.1,1.1-0.1,1.7-0.1s1.1,0,1.6,0.1c0.5,0,1,0,1.5,0.1
		c-0.8-0.8-1.6-1.8-2.5-2.8c-0.9-1-1.7-2.3-2.8-3.6l-14.1-18.6L629,233.2z"/>
	<path fill="#D4A589" d="M697.3,222.2L683.5,244c-2.1,3.2-5.4,7-5.4,10.4c0,0.3,0,0.5,0.1,0.7c0,0.3,0.1,0.5,0.2,0.7
		c-0.7-0.1-1.3-0.1-1.9-0.1c-0.6-0.1-1.2-0.1-1.8-0.1c-0.6,0.1-1.1,0.1-1.6,0.1c-0.5,0.1-1,0.2-1.5,0.2c0.8-0.8,1.6-1.8,2.5-2.9
		c0.9-1,1.9-2.2,2.8-3.6l2.1-3.4l0,0l15.3-24.7c0.5-0.8,0.9-1.6,1.2-2.4c0.3-0.8,0.4-1.5,0.4-2.2c0-0.5-0.1-0.9-0.2-1.3
		c-0.2-0.4-0.4-0.8-0.6-1.1c0.4,0,1,0,1.9,0c0.8,0,1.4,0,1.9,0c0.4,0,1,0,1.8,0c0.9,0,1.5,0,1.9,0c-1.1,1.5-2.5,3.5-4.2,6.2
		C698.1,221.1,697.6,221.8,697.3,222.2L697.3,222.2z M685.3,243.5l13.9-21.4c1.1-1.8,2.1-3.1,2.8-4.2c0.8-1.1,1.4-1.9,2-2.4
		c0.4-0.4,0.8-0.8,1.3-0.9c0.5-0.3,1.2-0.4,2.3-0.5l0,0c0.9-0.4,1.3-0.9,1.3-1.5c0-0.4-0.1-0.7-0.3-0.9c-0.2-0.2-0.6-0.3-1.1-0.3
		c-0.3,0-1.4,0.1-3.5,0.3c-2.1,0.1-4.1,0.2-5.9,0.2c-1.8,0-3.6-0.1-5.7-0.2c-2-0.2-3.1-0.3-3.4-0.3c-0.5,0-0.9,0.1-1.1,0.3
		s-0.4,0.5-0.4,0.9c0,0.3,0.1,0.6,0.3,0.9c0.1,0.2,0.5,0.4,1,0.6c1.4,0.2,2.4,0.5,2.9,0.8c0.5,0.4,0.7,0.9,0.7,1.5
		c0,0.4-0.2,1-0.6,1.8c-0.3,0.8-0.9,1.8-1.8,3.2l-8.9,14.5c-0.8-1.8-9.7-19.3-9.7-19.8c0-0.6,0.2-1,0.5-1.4c0.3-0.3,0.7-0.5,1.3-0.7
		c0.1,0,0.3,0,0.5-0.1c1-0.3,1.5-0.7,1.5-1.2c0-0.5-0.1-0.8-0.4-1c-0.2-0.2-0.6-0.4-1.1-0.4c-0.3,0-1.1,0.1-2.3,0.3
		c-1.2,0.1-2.2,0.2-3,0.2s-1.8-0.1-2.9-0.2c-1.2-0.2-2-0.3-2.3-0.3c-0.6,0-0.9,0.2-1.2,0.4c-0.2,0.2-0.4,0.5-0.4,1
		c0.1,0.2,0.1,0.5,0.3,0.7c0.1,0.1,0.5,0.4,1,0.6c7.7,1.9,13.5,18,16.7,24.5l-3.4,5.9l0,0l-2.6,4.1c-1.8,2.9-3.5,4.7-4.7,5.6
		c-1.1,1-2.1,1.5-3.2,1.7c-0.3,0.1-0.7,0.2-1.3,0.2c-1.1,0.2-1.7,0.6-1.7,1.2c0,0.5,0.1,0.8,0.4,1.1c0.2,0.2,0.6,0.3,1.1,0.3
		c0.1,0,1.1-0.1,3.1-0.2c2.1-0.2,4.2-0.3,6.2-0.3c2-0.1,4.1,0,6.2,0c2,0.1,3,0.2,3,0.2c0.5,0,0.9-0.1,1.1-0.4
		c0.2-0.2,0.3-0.5,0.3-0.9c0-0.3,0-0.5-0.1-0.7c-0.1-0.2-0.3-0.4-0.4-0.4c-0.3-0.1-0.7-0.2-1.1-0.3c-1.4-0.3-2.1-0.7-2.1-1.3
		C680.2,250.2,683.3,247.4,685.3,243.5L685.3,243.5z M685.3,243.5h-1.5l-0.3,0.5L685.3,243.5z"/>
	<path fill="#D4A589" d="M703.6,258.5 M722.3,257c-4.3-2.1-7.5-5.2-9.7-8.9c-2.3-3.7-3.4-7.9-3.4-12.7c0-5,1-9.4,3.3-13.2
		c2.3-3.9,5.6-6.9,9.9-9.1c-4.9,0.8-8.8,3.2-11.9,7.3c-3,4.1-4.6,9-4.6,14.7c0,5.5,1.5,10.2,4.6,14.3
		C713.7,253.5,717.5,256.1,722.3,257L722.3,257z M729.6,260.1c-3.4,0-6.7-0.5-9.6-1.6c-3-1.1-5.7-2.6-8.1-4.8
		c-2.6-2.4-4.7-5.3-6.1-8.4c-1.4-3.1-2.1-6.6-2.1-10.1c0-4,0.8-7.7,2.6-11.1c1.8-3.5,4.4-6.6,7.5-9c2.2-1.6,4.6-2.8,7.2-3.6
		c2.6-0.8,5.4-1.2,8.4-1.2c2.2,0,5,0.5,7.8,1.3c2.8,0.8,4.7,1.3,5.4,1.3c1,0,1.7-0.4,2.3-1c0.6-0.7,1-1.1,1.2-1.1
		c0.3,0,0.6,0.1,0.8,0.3c0.2,0.2,0.3,0.4,0.3,0.6c0,0.1-0.1,0.2-0.2,0.5c-0.4,1.9-0.7,4.1-0.7,6.3c0,1.5,0.2,3.3,0.5,5.2
		c0.1,0.5,0.1,0.7,0.1,0.9c0,0.4-0.1,0.6-0.3,0.9c-0.1,0.2-0.4,0.3-0.8,0.3c-0.6,0-1.1-0.6-1.5-2c-0.2-0.5-0.3-0.9-0.5-1.2
		c-1-3.2-2.7-5.6-5.1-7.1c-2.2-1.5-5.2-2.2-8.9-2.2c-5,0-9,1.9-12.3,5.9c-3.1,4-4.8,9.1-4.8,15.4c0,6.8,1.7,12.4,5.2,16.6
		c3.3,4.2,7.8,6.4,13.3,6.4c3,0,5.6-0.7,7.4-1.9c2-1.3,3.5-3.3,4.9-6.2c0.3-0.7,0.6-1.7,1-2.9c0.5-1.7,1-2.5,1.6-2.5
		c0.4,0,0.7,0.1,0.9,0.3c0.3,0.2,0.5,0.5,0.5,0.7c0,0.1-0.3,1.4-0.9,4.3c-0.6,2.8-0.9,5.5-0.9,8.1v1c0,0.3-0.1,0.5-0.3,0.7
		c-0.1,0.1-0.3,0.2-0.7,0.2c-0.1,0-0.5-0.1-1-0.1c-0.5-0.1-0.9-0.2-1.3-0.2c-0.5,0-2.1,0.2-5,0.7
		C734.5,259.9,731.9,260.1,729.6,260.1L729.6,260.1z"/>
	<path fill="#D4A589" d="M754.6,258.5 M773.2,257c-4.2-2.1-7.4-5.2-9.7-8.9c-2.2-3.7-3.4-7.9-3.4-12.7c0-5,1.1-9.4,3.4-13.2
		c2.2-3.9,5.6-6.9,9.8-9.1c-4.9,0.8-8.7,3.2-11.8,7.3c-3,4.1-4.6,9-4.6,14.7c0,5.5,1.5,10.2,4.6,14.3
		C764.6,253.5,768.6,256.1,773.2,257L773.2,257z M780.6,260.1c-3.5,0-6.8-0.5-9.7-1.6c-3-1.1-5.7-2.6-8-4.8
		c-2.6-2.4-4.7-5.3-6.2-8.4c-1.3-3.1-2.1-6.6-2.1-10.1c0-4,0.9-7.7,2.7-11.1c1.8-3.5,4.3-6.6,7.5-9c2.2-1.6,4.6-2.8,7.1-3.6
		c2.7-0.8,5.5-1.2,8.4-1.2c2.3,0,5,0.5,7.9,1.3c2.8,0.8,4.7,1.3,5.4,1.3c0.9,0,1.6-0.4,2.3-1c0.6-0.7,0.9-1.1,1.2-1.1
		c0.3,0,0.5,0.1,0.8,0.3c0.2,0.2,0.3,0.4,0.3,0.6c0,0.1-0.1,0.2-0.2,0.5c-0.4,1.9-0.7,4.1-0.7,6.3c0,1.5,0.1,3.3,0.5,5.2
		c0.1,0.5,0.1,0.7,0.1,0.9c0,0.4-0.1,0.6-0.3,0.9c-0.2,0.2-0.5,0.3-0.8,0.3c-0.6,0-1.1-0.6-1.6-2c-0.1-0.5-0.2-0.9-0.4-1.2
		c-1.1-3.2-2.8-5.6-5.1-7.1c-2.3-1.5-5.3-2.2-8.9-2.2c-5.1,0-9.1,1.9-12.3,5.9c-3.1,4-4.8,9.1-4.8,15.4c0,6.8,1.6,12.4,5.2,16.6
		c3.3,4.2,7.8,6.4,13.3,6.4c2.9,0,5.5-0.7,7.4-1.9c2-1.3,3.5-3.3,4.8-6.2c0.3-0.7,0.7-1.7,1.1-2.9c0.5-1.7,1-2.5,1.6-2.5
		c0.3,0,0.7,0.1,0.9,0.3c0.3,0.2,0.4,0.5,0.4,0.7c0,0.1-0.2,1.4-0.8,4.3c-0.6,2.8-1,5.5-1,8.1v1c0,0.3,0,0.5-0.2,0.7
		c-0.1,0.1-0.4,0.2-0.7,0.2c-0.2,0-0.5-0.1-1-0.1c-0.5-0.1-1-0.2-1.3-0.2c-0.5,0-2.2,0.2-5,0.7C785.5,259.9,783,260.1,780.6,260.1
		L780.6,260.1z"/>
	<path fill="#D4A589" d="M803,258.5 M829.9,241c0,6.1,0.3,10,0.8,11.8c0.4,1.8,1.3,2.9,2.6,3.3c0.4,0.1,1,0.1,1.8,0.1
		c1.5,0.1,2.3,0.6,2.3,1.4c0,0.5-0.2,0.7-0.4,1c-0.2,0.2-0.6,0.3-1.1,0.3c-0.2,0-1.4-0.1-3.6-0.2c-2.2-0.1-4.4-0.2-6.5-0.2
		c-1.9,0-4.1,0.1-6.4,0.2c-2.2,0.1-3.4,0.2-3.6,0.2c-0.5,0-0.8-0.1-1.1-0.3c-0.2-0.3-0.3-0.5-0.3-1c0-0.7,0.6-1.1,1.8-1.4
		c0.5,0,0.9,0,1.2-0.1c1.8-0.2,3-0.8,3.6-1.7c0.6-0.9,0.9-3.1,0.9-6.9v-33.4h-4.9c-3,0-5.4,0.3-6.8,0.8c-1.5,0.6-2.6,1.5-3.4,2.8
		c-0.4,0.6-0.8,1.4-1.1,2.4c-0.6,1.3-1.3,1.9-1.9,1.9c-0.2,0-0.4,0-0.5-0.3c-0.2-0.1-0.3-0.3-0.3-0.5c0-0.3,0.5-1.6,1.4-4
		c0.9-2.4,1.3-4.5,1.3-6.1c0-0.6,0.1-0.9,0.3-1.1c0.3-0.3,0.5-0.3,1-0.3c0.1,0,0.3,0.1,0.6,0.4c0.1,0.3,0.3,0.5,0.5,0.7
		c0.3,0.2,0.8,0.3,1.3,0.4c0.5,0.1,1.4,0.1,2.5,0.1h3.4h1.7h23c4.3,0,7.2-0.5,8.8-1.4c0.1-0.1,0.2-0.1,0.2-0.1
		c0.2,0,0.5,0.1,0.7,0.4c0.2,0.2,0.3,0.3,0.3,0.6c0,0.1-0.3,1-1.2,2.6c-0.8,1.7-1.4,3.3-1.9,5c-0.1,0.3-0.2,0.7-0.4,1.1
		c-0.5,1.8-1,2.8-1.6,2.8c-0.3,0-0.5-0.1-0.8-0.2c-0.2-0.2-0.3-0.5-0.3-0.8c0-0.1,0.1-0.5,0.3-1.3c0.3-0.9,0.3-1.7,0.3-2.4
		c0-1.4-0.6-2.3-1.8-2.8c-1.2-0.6-3.6-0.8-7-0.8h-5.9V241z M826.5,243.8v-29.8h-2.8v32.3c0,3.7-0.1,6.3-0.3,7.4c0,1.2-0.3,2-0.6,2.5
		c0.4-0.1,0.9-0.1,1.4-0.1c0.5-0.1,0.9-0.1,1.4-0.1c0.4,0,0.8,0,1.3,0.1c0.4,0,0.8,0,1.2,0.1c-0.6-1.3-0.9-2.8-1.2-4.8
		C826.6,249.7,826.5,247.2,826.5,243.8L826.5,243.8z"/>
	<path fill="#D4A589" d="M851.6,258.5 M879.8,234.6c2.1,1.1,3.9,2.6,5.2,4.6c1.2,1.9,1.8,4.3,1.8,6.7c0,2.5-0.7,4.8-1.9,6.8
		c-1.3,1.9-3,3.5-5.4,4.7c3.2-0.2,5.7-1.3,7.4-3.3c1.7-2,2.6-4.9,2.6-8.4c0-3.1-0.9-5.8-2.7-7.8C885,235.8,882.7,234.8,879.8,234.6
		L879.8,234.6z M879.7,230.9c1.9-0.7,3.4-1.7,4.6-3.1c1.1-1.6,1.6-3.3,1.6-5.5c0-2.5-0.7-4.6-2.3-6.4c-1.6-1.7-3.5-2.6-6.1-2.7
		c1.9,1,3.3,2.3,4.3,4c1,1.6,1.4,3.4,1.4,5.6c0,1.5-0.3,3-0.8,4.3C881.8,228.2,880.9,229.7,879.7,230.9L879.7,230.9z M859.2,222.8
		c0-3.6-0.3-5.9-0.9-6.8c-0.6-1-1.8-1.5-3.6-1.8c-0.3-0.1-0.7-0.1-1.1-0.2c-1.3-0.1-1.9-0.6-1.9-1.3c0-0.4,0.1-0.7,0.3-0.9
		c0.3-0.3,0.7-0.3,1.2-0.3c0.2,0,1.4,0,3.6,0.1c2.2,0.2,4.4,0.2,6.3,0.2c1.4,0,3.5-0.1,6.2-0.3c2.8-0.2,4.9-0.4,6.1-0.4
		c4.3,0,7.6,1,10.1,3c2.5,2,3.7,4.8,3.7,8.2c0,2.7-0.9,5.2-2.8,7c-1.9,1.8-4.7,3.1-8.1,3.6c4.8,0.4,8.4,1.7,10.9,3.9
		c2.6,2.1,4,5,4,8.4c0,4.2-1.5,7.5-4.5,10.2c-3,2.6-6.9,4-11.7,4c-1.6,0-4-0.2-7-0.4c-3.1-0.3-5.4-0.4-6.9-0.4c-2,0-4.2,0.1-6.4,0.2
		c-2.2,0.1-3.5,0.2-3.7,0.2c-0.5,0-0.8-0.1-1.1-0.3c-0.2-0.3-0.3-0.5-0.3-1c0-0.8,0.6-1.2,1.9-1.4c0.5,0,0.8,0,1.1,0
		c1.8-0.3,3-0.9,3.6-1.8c0.6-0.9,0.9-3.2,0.9-6.9V222.8z M867.1,234.5v11.3c0,1.4,0.1,2.9,0.3,4.7c0.1,1.6,0.2,3.3,0.5,5.3
		c1.4,0.4,2.6,0.6,3.5,0.7c1,0.2,1.9,0.3,2.7,0.3c3,0,5.7-1,7.7-3.1c2-2.1,3-4.8,3-8c0-3.5-1.3-6.3-3.7-8.3c-2.6-2-6.1-3.1-10.5-3.1
		c-0.5,0-1.1,0-1.6,0.1C868.4,234.3,867.8,234.4,867.1,234.5L867.1,234.5z M867.1,232.1c0.5,0.1,1,0.1,1.5,0.1
		c0.5,0.1,1.2,0.1,2,0.1c3.5,0,6.2-0.8,7.9-2.4c1.8-1.6,2.7-3.9,2.7-7c0-2.8-0.8-5.2-2.5-6.9c-1.6-1.7-3.9-2.6-6.7-2.6
		c-2,0-3.3,0.6-4,1.5c-0.7,0.9-1,3.5-1,7.7V232.1z M863.7,246.5v-25.5c0-1.1,0.1-2.3,0.3-3.4c0.2-1.1,0.5-2.3,0.9-3.4
		c-0.3,0-0.6,0-1.1,0c-0.6,0.1-0.9,0.1-1.2,0.1c-0.3,0-0.7,0-1.2-0.1c-0.6,0-1.1,0-1.4,0c0.3,0.5,0.6,1.4,0.6,2.5
		c0.2,1.2,0.2,3.6,0.2,7.4v22.4c0,3.7,0,6.2-0.2,7.4c0,1.1-0.3,2-0.6,2.4c0,0,0.1,0,0.2,0c1,0,1.8-0.1,2.2-0.1c0.3,0,0.6,0.1,1,0.1
		c0.4,0,0.8,0,1.2,0.1c-0.3-2-0.5-3.9-0.7-5.5C863.8,249.2,863.7,247.8,863.7,246.5L863.7,246.5z"/>
	<path fill="#D4A589" d="M895,258.5 M917.8,219.9l10.6,28.7c0.6,1.5,0.9,2.7,1.2,3.5c0.2,0.8,0.3,1.4,0.3,1.9c0,0.2,0,0.5-0.1,0.9
		c-0.1,0.3-0.2,0.7-0.4,1.3c0.8-0.1,1.4-0.1,1.8-0.1c0.4,0,0.8,0,1.1,0c0.4,0,0.8,0,1.2,0c0.4,0,1,0,1.7,0.1
		c-0.8-0.9-2.2-3.7-4.1-8.6l-0.3-0.6L919.4,216L917.8,219.9z M909.2,240.2h14.4l-6.8-18L909.2,240.2z M908.2,242.7l-1.7,4.5
		c-0.4,1.1-0.8,2.2-1,3.3c-0.2,1-0.4,1.9-0.4,2.6c0,0.9,0.3,1.7,0.9,2.2c0.5,0.4,1.5,0.7,2.8,0.8c0,0,0,0,0.1,0c1.3,0.2,2,0.6,2,1.3
		c0,0.5-0.1,0.8-0.4,1.1c-0.2,0.2-0.6,0.3-1.1,0.3c-0.3,0-1.1-0.1-2.6-0.2c-1.5-0.1-2.8-0.2-4.1-0.2c-1,0-2.1,0.1-3.5,0.2
		c-1.3,0.1-2.2,0.2-2.6,0.2c-0.5,0-0.9-0.1-1.1-0.3c-0.2-0.3-0.4-0.5-0.4-1c0-0.7,0.5-1.1,1.6-1.3c0.4,0,0.8-0.1,1-0.1
		c1.8-0.8,3.9-4,6.3-9.5c0.4-1,0.8-1.7,1-2.2l11.9-27.2c0.4-1,0.9-2.3,1.5-4c0.6-2.1,1.3-3.2,1.9-3.2c0.6,0,1.3,1.6,2.1,4.8
		c0.8,3.1,1.6,5.9,2.6,8.3l9.1,23.3l0.1,0.2c2.2,5.8,4.4,8.9,6.6,9.5c0.2,0,0.4,0,0.7,0.1c1,0.2,1.6,0.6,1.6,1.4
		c0,0.4-0.2,0.6-0.4,0.9c-0.2,0.2-0.6,0.3-1,0.3c-0.2,0-1.3-0.1-3.3-0.2c-2-0.1-4.1-0.2-5.9-0.2c-1.9,0-4,0.1-6,0.2
		c-2,0.1-3.1,0.2-3.3,0.2c-0.5,0-0.8-0.1-1-0.3c-0.2-0.3-0.3-0.6-0.3-1.1c0-0.5,0.2-0.8,0.4-0.9c0.3-0.2,0.9-0.4,1.8-0.4
		c1.2-0.2,2.2-0.5,2.8-1c0.6-0.4,0.9-1.1,0.9-1.9c0-0.9-0.3-2.4-1.1-4.3v-0.1l-2.2-6.2H908.2z"/>
	<path fill-rule="evenodd" clip-rule="evenodd" fill="#D4A589" d="M368.7,231.9V222c0-3.6-0.3-5.9-0.8-6.8c-0.6-0.9-1.8-1.5-3.6-1.8
		c-0.2-0.1-0.6-0.1-1-0.2c-1.3-0.1-1.9-0.5-1.9-1.3c0-0.3,0.2-0.6,0.4-0.8c0.2-0.2,0.6-0.3,1.1-0.3c0.2,0,1.3,0,3.5,0.2
		c2.1,0.1,4.3,0.2,6.2,0.2c2,0,4.2-0.1,6.3-0.2c2.2-0.2,3.3-0.2,3.5-0.2c0.5,0,0.8,0,1.1,0.2c0.2,0.2,0.3,0.5,0.3,0.9
		c0,0.8-0.7,1.2-2.1,1.3c-0.7,0-1.3,0.1-1.8,0.2c-1.3,0.5-2.1,1.6-2.6,3.4c-0.5,1.7-0.7,5.7-0.7,11.8v11.7c0,6,0.2,9.9,0.7,11.7
		c0.5,1.8,1.3,3,2.6,3.4c0.4,0.1,3.6,0.1,4.4,0.1c1.4,0.1,2.1,0.5,2.1,1.4c0,0.4-0.1,0.7-0.3,0.9c-0.2,0.2-0.6,0.3-1.1,0.3
		c-0.2,0-3.9,0-6.1-0.1c-2.1-0.1-4.3,0.2-6.3,0.2c-1.9,0-4.1-0.1-6.2,0c-2.2,0.2-3.4,0-3.6,0c-0.4,0-0.8-0.1-1-0.3
		c-0.2-0.2-0.4-0.5-0.4-1c0-0.7,0.6-1.2,1.8-1.3c0.5-0.1,0.9-0.1,1.1-0.2c1.8-0.2,3-0.8,3.6-1.7c0.5-0.9,0.8-3.1,0.8-6.8v-11.7
		V231.9z M373.2,243v-17.2c0-3.3,0.1-6,0.4-7.8c0.2-1.8,0.6-3.4,1.2-4.8c-0.3,0-0.7,0-1.3,0c-0.6,0.1-1,0.1-1.3,0.1s-0.7,0-1.3-0.1
		c-0.6,0-1,0-1.3,0c0.3,0.5,0.5,1.2,0.6,2.3c0.1,1,0.2,2.8,0.2,5.5v2.2v24.4c0,2.6-0.1,4.5-0.2,5.6c-0.1,1-0.3,1.8-0.6,2.2
		c0.5,0,0.9-0.1,1.4-0.1c0.4-0.1,0.9-0.1,1.3-0.1c0.4,0,0.8,0,1.3,0.1c0.4,0,0.8,0.1,1.2,0.1c-0.6-1.3-1-2.8-1.2-4.7
		C373.3,248.9,373.2,246.4,373.2,243L373.2,243z"/>
	<path fill="#D4A589" d="M190.9,245.8v-13.6c0-5.1,0.9-9.1,2.8-12.2c1.8-3.1,4.6-5.3,8.2-6.4c-3,2.1-5.2,4.7-6.4,7.4
		c-1.3,2.8-1.9,6.7-1.9,11.7v10.6c0,3,0.1,5.6,0.4,7.5c0.2,1.8,0.6,3.4,1.1,4.7c-0.3,0-0.7,0-1.2-0.1c-0.6-0.1-1-0.1-1.2-0.1
		c-0.3,0-0.7,0-1.3,0.1c-0.5,0.1-1,0.1-1.2,0.1c0.2-0.5,0.4-1.2,0.6-2.2c0.1-1,0.1-2.8,0.1-5.4V245.8z M215.2,237.1v9.9
		c0,3.6-0.3,5.9-0.8,6.8c-0.6,0.9-1.7,1.5-3.5,1.8c-0.2,0.1-0.6,0.1-1,0.2c-1.2,0.1,1.6,0.5,1.6,1.3c0,0.3-3.4,0.5-3.2,0.7
		c0.3,0.2,0.7,0.2,1.2,0.2c0.2,0,1.3,0.2,3.4,0c2.1-0.1,4.2-0.2,6.1-0.2c1.9,0,4,0.1,6.1,0.2c2.1,0.2,3.2,0.2,3.3,0.2
		c0.5,0,0.9-0.1,1.1-0.2c0.2-0.2,0.3-0.5,0.3-0.9c0-0.8-0.7-1.3-2-1.3c-0.7,0-1.3-0.1-1.7-0.2c-1.3-0.4-2.1-1.6-2.6-3.4
		c-0.5-1.7-0.7-5.7-0.7-11.8v-11.7c0-6,0.2-9.9,0.7-11.8c0.4-1.5,1.4-3.4,3.1-3.4c1.3-0.1,2-0.5,2-1.4c0-0.4-0.1-0.7-0.3-0.9
		c-0.2-0.2-0.6-0.3-1.1-0.3c-0.1,0,0,0-2.1,0.1c-2.1,0.1-4.2-0.2-6.1-0.2h-0.3l0,0h-5.8c-1.3-0.1-2.2-0.1-2.8,0c-2.6,0-1.6,0-1.7,0
		c-6.1,0.3-10.6,2-13.8,5.4c-3.4,3.6-5.2,9-5.2,16.2V247c0,3.5-0.3,5.8-0.9,6.7c-0.5,0.8-1.7,1.4-3.4,1.6c-0.3,0.1-0.7,0.1-1.1,0.2
		c-1.1,0.2-1.6,0.6-1.6,1.4c0,0.4,0.1,0.7,0.3,0.8c0.2,0.2,0.5,0.3,1,0.3c0.2,0,1.3-0.1,3.4-0.2c2-0.2,4.1-0.2,6.1-0.2
		c1.9,0,3.9,0,6,0.2c2.1,0.1,14.1,0.2,14.3,0.2c0.5,0,0.9-0.1,1.1-0.3c0.2-0.1,0.4-0.4,0.4-0.8c0-0.8-0.7-1.2-2-1.3
		c-0.8-0.1-12.4-0.2-12.8-0.3c-1.2-0.4-2-1.4-2.5-3.1c-0.4-1.7-0.6-5.6-0.6-11.6v-7.2c0-6.9,1-11.9,3.2-15.2
		c1.8-2.7,4.6-4.4,8.1-4.8c0.2,0-1.2,0,1.2,0c0.1,0,0.2,0,0.3,0c0.4,0.1,0.8,0.1,1,0.2c1.7,0.2,2.9,0.8,3.5,1.7
		c0.5,0.9,0.8,3.1,0.8,6.8v11.7V237.1z M219.6,225.9v17.2c0,3.3,0.1,6,0.3,7.8c0.2,1.8,0.6,3.4,1.2,4.8c-0.3,0-0.7,0-1.3-0.1
		c-0.5,0-0.9,0-1.2,0s-0.7,0-1.3,0c-0.6,0.1-1,0.1-1.3,0.1c0.3-0.5,0.5-1.3,0.6-2.3c0.1-1,0.2-2.9,0.2-5.5v-2.2v-24.4
		c0-2.6-0.1-4.5-0.2-5.6c-0.1-1-0.3-1.8-0.5-2.2c0.4,0,0.9,0.1,1.3,0.1c0.4,0.1,0.9,0.1,1.3,0.1c0.4,0,0.8,0,1.2-0.1
		c0.4,0,0.8-0.1,1.2-0.1c-0.6,1.3-1,2.8-1.2,4.7C219.7,220,219.6,222.6,219.6,225.9L219.6,225.9z M231.5,257.5
		c0.1-0.1,0.1-0.3,0.1-0.6c0-0.2,0-0.4-0.1-0.6V257.5z"/>
	<path fill-rule="evenodd" clip-rule="evenodd" fill="#D4A589" d="M231.2,256.7l-0.1,2.8l-0.2,3.3v0.8c0,1.2,0,2-0.1,2.4
		c-0.2,0.4-0.4,0.7-0.9,0.7s-0.8-0.3-0.9-0.8c-0.2-1.4-0.3-2.7-0.6-4.1c-0.3-1.7-0.8-2.8-1.4-3.4c-0.4-0.3-1-0.6-1.8-0.7
		c-0.8-0.2-1.7-0.2-2.8-0.2c-0.8,0-1.7,0-2.5,0c-0.8,0.1-1.6,0.2-2.3,0.2h-23.3c-0.5,0-1,0-1.5,0c-0.5,0-0.9,0-1.4,0
		c-1.2,0-2.2,0-2.9,0.1c-0.7,0.1-1.5,0.4-2.2,0.9c-0.8,0.4-1.4,1.1-1.8,1.9c-0.3,0.6-0.5,1.4-0.7,2.4l-0.4,2.4
		c-0.1,0.4-0.2,0.7-0.3,0.9c-0.1,0.2-0.4,0.3-0.7,0.3s-0.6-0.2-0.7-0.5c-0.1-0.4-0.2-0.8-0.2-1.3c0-0.4,0-0.7,0.1-1
		c0-0.4,0-0.6,0-0.9v-2.8v-2.7c0-0.7,0-1.1,0.1-1.2c0.1-0.2,0.3-0.2,0.5-0.2h0.9h0.6c0.4,0,0.7-0.1,1-0.2h6.7c0.2,0,0.4,0.1,0.5,0.1
		c0.9,0,1.7,0.1,2.4,0.1h22.4c1.1,0,2-0.1,2.6-0.2h8.1c0.4,0.2,0.9,0.3,1.5,0.3h1.1l0.8-0.1C231,256,231.3,256.3,231.2,256.7
		L231.2,256.7z"/>
	<path fill-rule="evenodd" clip-rule="evenodd" fill="#D4A589" d="M386.4,256.7l-0.1,2.8l-0.2,3.3v0.8c0,1.2-0.1,2-0.2,2.4
		c-0.1,0.4-0.4,0.7-0.9,0.7s-0.8-0.3-0.9-0.8c-0.2-1.4-0.4-2.7-0.6-4.1c-0.3-1.7-0.9-2.8-1.5-3.4c-0.4-0.3-1-0.6-1.8-0.7
		c-0.8-0.2-1.8-0.2-2.9-0.2c-0.9,0-1.7,0-2.6,0c-0.8,0.1-1.6,0.2-2.4,0.2h-9.8v-1.7h8.8c1.1,0,2-0.1,2.7-0.2h8.3
		c0.4,0.2,0.9,0.3,1.5,0.3h1.2l0.8-0.1C386.2,256,386.4,256.3,386.4,256.7L386.4,256.7z"/>
</g>
</svg>
