<svg xmlns="http://www.w3.org/2000/svg" viewBox="0 0 20.18 21.23"><defs><style>.cls-1{fill:#fff;}</style></defs><title>Ресурс 2</title><g id="Слой_2" data-name="Слой 2"><g id="Layer_1" data-name="Layer 1"><path class="cls-1" d="M18.14,2.37C16.46.73,13.75-.07,10.08,0S3.9.73,2.28,2.05,0,5.2,0,7.94v2.8C0,14,1.73,17.53,5.05,18.07a.7.7,0,0,0,.22-1.39c-2.51-.41-3.87-3.37-3.87-5.94V7.94C1.4,4,2.86,1.55,10.1,1.41c3.29-.07,5.66.59,7.06,2a6,6,0,0,1,1.62,4.56v2.8c0,4.23-1.9,6.1-6.78,6.65H8.55a.7.7,0,0,0-.5.2L5.62,20a.69.69,0,0,0,0,1,.67.67,0,0,0,.49.21.7.7,0,0,0,.5-.21l2.23-2.23h3.28c2.79-.31,4.7-1,6-2.29s2.05-3.2,2.05-5.76V7.94A7.47,7.47,0,0,0,18.14,2.37Z"/><path class="cls-1" d="M10.53,4.58h0a4.23,4.23,0,0,1,4.23,4.23.7.7,0,0,0,.7.7h0a.7.7,0,0,0,.7-.7,5.63,5.63,0,0,0-5.63-5.63h0a.7.7,0,0,0,0,1.4Z"/><path class="cls-1" d="M10.53,7.05a1.76,1.76,0,0,1,1.76,1.76.71.71,0,0,0,1.41,0,3.17,3.17,0,0,0-3.17-3.16h0a.7.7,0,0,0,0,1.4Z"/><path class="cls-1" d="M7.38,8.25a.69.69,0,0,0-.18,1,.71.71,0,0,0,1,.19A1.53,1.53,0,0,0,9,8a3.84,3.84,0,0,0-.82-1.66A3.57,3.57,0,0,0,6.81,5.08a1.54,1.54,0,0,0-1.06,0A2.51,2.51,0,0,0,4.17,6.4a2.44,2.44,0,0,0,0,2A13.34,13.34,0,0,0,7,12.69a13,13,0,0,0,4.31,2.8,2.68,2.68,0,0,0,1,.22,2.29,2.29,0,0,0,.93-.2,2.59,2.59,0,0,0,1.33-1.58,1.54,1.54,0,0,0,0-1.06,3.66,3.66,0,0,0-1.29-1.35,4,4,0,0,0-1.66-.82,1.54,1.54,0,0,0-1.38.8.71.71,0,0,0,.18,1,.72.72,0,0,0,1-.19,1,1,0,0,1,.14-.18,5.62,5.62,0,0,1,1.72,1.27.19.19,0,0,1,0,.1,1.24,1.24,0,0,1-.58.76,1.12,1.12,0,0,1-.87-.05A11.53,11.53,0,0,1,8,11.7,11.83,11.83,0,0,1,5.48,7.85a1.13,1.13,0,0,1,0-.87,1.25,1.25,0,0,1,.75-.58c.06,0,.09,0,.11,0A5.66,5.66,0,0,1,7.57,8.11Z"/></g></g></svg>