<svg xmlns="http://www.w3.org/2000/svg" viewBox="0 0 18.51 18.6"><defs><style>.cls-1{fill:#fff;}</style></defs><title>00Ресурс 1</title><g id="Слой_2" data-name="Слой 2"><g id="Layer_1" data-name="Layer 1"><path class="cls-1" d="M15.81,2.7A9.21,9.21,0,0,0,.08,9.22a9.13,9.13,0,0,0,1.23,4.6L0,18.6l4.89-1.28a9.22,9.22,0,0,0,4.4,1.12h0A9.22,9.22,0,0,0,15.81,2.7ZM9.29,16.88h0a7.74,7.74,0,0,1-3.9-1.06l-.28-.17-2.9.76L3,13.58l-.19-.29A7.66,7.66,0,0,1,9.3,1.56a7.66,7.66,0,1,1,0,15.32Zm4.21-5.73c-.23-.12-1.37-.68-1.58-.75s-.36-.12-.52.11-.59.75-.72.91-.27.17-.5.05a6.24,6.24,0,0,1-1.86-1.14A7.22,7.22,0,0,1,7,8.73c-.13-.23,0-.34.1-.47a7.46,7.46,0,0,0,.58-.78.42.42,0,0,0,0-.41C7.64,7,7.18,5.82,7,5.36S6.61,5,6.47,5H6a.85.85,0,0,0-.61.29,2.59,2.59,0,0,0-.81,1.92,4.51,4.51,0,0,0,.94,2.38A10.31,10.31,0,0,0,9.49,13a10.2,10.2,0,0,0,1.31.48,3.23,3.23,0,0,0,1.45.1,2.38,2.38,0,0,0,1.55-1.1,1.84,1.84,0,0,0,.14-1.09C13.88,11.32,13.73,11.26,13.5,11.15Z"/></g></g></svg>