<?xml version="1.0" encoding="utf-8"?>
<!-- Generator: Adobe Illustrator 24.0.3, SVG Export Plug-In . SVG Version: 6.00 Build 0)  -->
<svg version="1.1" id="Layer_1" xmlns="http://www.w3.org/2000/svg" xmlns:xlink="http://www.w3.org/1999/xlink" x="0px" y="0px"
	 viewBox="0 0 58.9 96.3" style="enable-background:new 0 0 58.9 96.3;" xml:space="preserve">
<style type="text/css">
	.st0{fill-rule:evenodd;clip-rule:evenodd;fill:#333333;fill-opacity:0.3294;}
	.st1{fill-rule:evenodd;clip-rule:evenodd;fill:#FFFFFF;}
	.st2{fill-rule:evenodd;clip-rule:evenodd;fill:#1A1A1A;}
	.st3{fill-rule:evenodd;clip-rule:evenodd;fill:#C0977B;}
</style>
<g id="Слой_x0020_1">
	<path class="st0" d="M28.8,4.1c14.1,0,25.5,11.4,25.5,25.5S36.4,82.9,29.2,87C16.5,76.9,3.3,43.7,3.3,29.6
		C3.3,15.5,14.7,4.1,28.8,4.1L28.8,4.1z"/>
	<g id="_1948695102432">
		<path class="st1" d="M39.1,25.3l1,1c0.4,0.3,1.8,1.4,2.3,1.7c0.3,0.2,1.1,0.8,1.4,1.1c0.7,0.7,1,1.3,1.2,2.3
			c0.1,0.6-0.1,1.2-0.3,1.6c-0.1,0.2-0.3,0.4-0.4,0.6c-0.1,0.1-0.4,0.5-0.5,0.5h-9.4c-0.2,0-0.8-0.8-0.9-1.1c-0.2-0.5-0.4-1-0.3-1.6
			c0-0.3,0.1-0.6,0.2-0.8c0.7-1.8,2.7-2.8,4.2-3.9c0.1-0.1,0.2-0.1,0.3-0.2c0.1-0.1,0.2-0.1,0.3-0.2L39.1,25.3L39.1,25.3z
			 M18.6,25.3c0.1,0.1,0.6,0.6,0.8,0.7c0.4,0.4,1.5,1.2,2,1.5c0.9,0.6,2.1,1.4,2.7,2.3c0.3,0.5,0.4,0.8,0.5,1.5
			c0.2,1.4-1,2.7-1.2,2.7h-9.4c-0.1,0-0.4-0.4-0.5-0.5c-0.1-0.2-0.3-0.4-0.4-0.6c-0.5-1-0.5-2.2,0.2-3.1c0.2-0.3,0.6-0.8,1-1.1
			l0.5-0.4c0.2-0.2,0.4-0.3,0.6-0.4l1.2-0.8c0.2-0.1,0.4-0.3,0.6-0.4c0.1-0.1,0.2-0.1,0.3-0.2c0.1-0.1,0.2-0.1,0.3-0.2L18.6,25.3
			L18.6,25.3z M31.4,31.5c0,0.7,0,0.9,0.2,1.6c0.2,0.6,0.5,1.2,0.9,1.7c0.1,0.1,0.6,0.7,0.6,0.7v6.2h1.7V36c0-0.2,0.6-0.1,1-0.1
			c0.7,0,2.9,0,3.3,0c0.5,0.1,3.5,0,4.3,0v11h-29v-11c0.8,0,3.8,0,4.3,0c0.4-0.1,3,0,3.8,0c0.2,0,0.5-0.1,0.5,0.1v5.7h1.7v-6.2
			c0-0.1,0.5-0.6,0.6-0.7c0.6-0.8,1.1-1.8,1.1-2.8c0-0.7,0-1.2-0.3-1.9c-0.2-0.5-0.2-0.5-0.4-0.9c0-0.1-0.2-0.2-0.2-0.3v-3.3h6.8
			v3.2c0,0.1-0.2,0.4-0.3,0.6C31.6,30,31.4,30.7,31.4,31.5L31.4,31.5z M28.8,16.8c0.2,0.1,0.3,0.3,0.4,0.4c0.5,0.5,1.8,1.4,2.4,1.8
			c0.3,0.2,0.9,0.7,1.2,0.9c0.1,0.1,0.1,0.1,0.2,0.2c0.4,0.4,0.8,0.9,0.9,1.6c0.1,0.7-0.1,1.4-0.6,1.9C33.2,23.6,33,24,32.9,24h-8.2
			c-0.1,0-0.3-0.3-0.4-0.4c-1.1-1.4-0.6-2.8,0.7-3.9c0.3-0.3,0.6-0.5,1-0.7c0.7-0.5,1.3-0.8,2-1.4L28.8,16.8z M28,12h-1.7v1.7H28
			v1.4c0,0.2-0.5,0.7-0.7,0.9l-0.7,0.5c-0.9,0.6-1.7,1-2.6,1.8l-1.2,1.2c-1.1,1.5-1.1,3.7,0.1,5.2l0.6,0.6c0.1,0.1,0.2,0.1,0.2,0.2
			c0.1,0.3,0,1.3,0,1.7L22,26c-0.2-0.1-0.4-0.2-0.6-0.4c-0.5-0.4-1.1-0.8-1.6-1.3c-0.1-0.1-0.4-0.5-0.4-0.6v-1.5h1.7v-1.7h-1.7v-1.7
			h-1.7v1.7H16v1.7h1.7v1.5c0,0.3-1,1.2-1.3,1.4L14,26.8c-0.1,0.1-0.2,0.1-0.3,0.2c-1.4,1-2.8,2.6-2.8,4.5c0,0.7,0,0.9,0.2,1.6
			c0.2,0.7,0.6,1.4,1.1,1.9c0.1,0.2,0.5,0.5,0.5,0.5v13.2H45V35.5c0-0.1,0.3-0.3,0.4-0.5c0.2-0.3,0.5-0.6,0.7-1
			c0.7-1.3,0.8-2.6,0.3-4.1c-0.2-0.4-0.4-0.8-0.6-1.2c-0.5-0.7-1.2-1.3-1.8-1.8c-0.4-0.3-0.7-0.5-1.1-0.7c-0.8-0.5-2-1.4-2.6-2
			c-0.1-0.1-0.4-0.5-0.4-0.5v-1.5h1.7v-1.7h-1.7v-1.7h-1.7v1.7h-1.7v1.7h1.7v1.5c0,0.2-0.9,1-1.1,1.2c-0.1,0.1-0.2,0.1-0.3,0.2
			l-2.8,2c0-0.5,0-1.2,0-1.6c0-0.2,0.2-0.3,0.4-0.5c0.6-0.6,1.3-1.7,1.3-2.8c0-1.2-0.2-1.9-0.8-2.8c-0.9-1.2-2.6-2.2-3.9-3.1
			c-0.2-0.1-1.2-0.9-1.2-1.2v-1.5h1.7V12h-1.7v-1.7H28L28,12L28,12z"/>
		<path class="st1" d="M28,36.6V41h1.7v-4.4c0-0.3-0.4-0.7-0.7-0.7c-0.3,0-0.5,0-0.8,0.2C28.1,36.2,28,36.5,28,36.6z"/>
		<path class="st1" d="M17.7,40v4.4h1.7V40c0-0.3-0.4-0.7-0.7-0.7c-0.3,0-0.5,0-0.8,0.2C17.9,39.6,17.7,39.9,17.7,40L17.7,40z"/>
		<path class="st1" d="M38.2,40v4.4h1.7V40c0-0.3-0.4-0.7-0.7-0.7c-0.3,0-0.5,0-0.8,0.2C38.3,39.6,38.2,39.9,38.2,40L38.2,40z"/>
	</g>
	<ellipse class="st2" cx="29.2" cy="91.2" rx="14.4" ry="4.2"/>
	<path class="st3" d="M5,29.9c0-3.3,0-3.7,0.8-7.1c1-4,3.5-8.4,6.6-11.2c3.9-3.5,6.2-4.9,11.6-6.2C30.3,3.8,37.5,5.3,42.8,9
		c1.5,1,2.5,1.8,3.8,3.1c0,0,0.1,0.2,0.2,0.2c2.8,3.1,4.8,6.2,5.9,10.5c2.6,10.3-1.4,21.1-5.3,30.3c-1,2.4-2,4.4-3.2,6.7
		c-4.1,8.2-7.7,14-12.8,21.6c-0.4,0.7-1.8,2.4-2,3l-11.8-18c-2.9-4.8-7.8-15.6-9.3-20.1C6.8,41.7,5,35.7,5,29.9L5,29.9z M1,29.1
		c0,7.5,1.8,13.1,3.7,18.8c0.5,1.5,1,2.6,1.5,4c0.6,1.5,1,2.6,1.7,3.9C8.5,57,9,58.2,9.6,59.5l5.8,10.8c0.7,1.2,1.3,2.3,2,3.5
		c0.7,1.2,1.4,2.2,2.1,3.4c0.9,1.5,7.5,11.6,8.6,12.2c0.8,0.4,1.4,0.4,2.1,0c0.4-0.2,0.5-0.3,0.7-0.7c0.4-0.5,0.8-1,1.2-1.6
		c5.4-8,10.3-15.2,14.7-24l6.8-15.3c2.6-7.8,5.1-16.4,3.1-24.9c-3-12.9-14.7-22-27.5-22l-6.2,0.7c-3,0.7-7.4,2.5-9.9,4.4
		c-5.9,4.4-9.7,9.5-11.5,16.8C1.3,24.3,1,27,1,29.1L1,29.1z"/>
</g>
</svg>
