<?xml version="1.0" encoding="utf-8"?>
<!-- Generator: Adobe Illustrator 24.0.3, SVG Export Plug-In . SVG Version: 6.00 Build 0)  -->
<svg version="1.1" id="Layer_1" xmlns="http://www.w3.org/2000/svg" xmlns:xlink="http://www.w3.org/1999/xlink" x="0px" y="0px"
	 viewBox="0 0 58.9 96.3" style="enable-background:new 0 0 58.9 96.3;" xml:space="preserve">
<style type="text/css">
	.st0{fill-rule:evenodd;clip-rule:evenodd;fill:#C0977B;}
	.st1{fill-rule:evenodd;clip-rule:evenodd;fill:#1A1A1A;}
	.st2{fill-rule:evenodd;clip-rule:evenodd;fill:#FFFFFF;}
</style>
<g id="Слой_x0020_1_1_">
	<path class="st0" d="M28.8,4c14.1,0,25.6,11.4,25.6,25.6S36.4,83,29.2,87.1c-12.8-10.2-26-43.4-26-57.5C3.2,15.5,14.7,4,28.8,4
		L28.8,4z"/>
	<ellipse class="st1" cx="29.2" cy="91.3" rx="14.4" ry="4.2"/>
	<path class="st0" d="M4.9,29.8c0-3.3,0-3.7,0.8-7.1c1-4,3.5-8.4,6.6-11.2c3.9-3.5,6.2-4.9,11.6-6.2c6.4-1.6,13.6-0.1,18.9,3.6
		c1.5,1,2.5,1.8,3.8,3.2c0,0,0.1,0.2,0.2,0.2c2.8,3.1,4.9,6.2,5.9,10.5c2.6,10.4-1.4,21.1-5.4,30.4c-1,2.4-2,4.4-3.2,6.7
		c-4.1,8.2-7.7,14-12.8,21.7c-0.4,0.7-1.8,2.4-2,3L17.6,66.4c-2.9-4.8-7.8-15.7-9.3-20.2C6.8,41.7,4.9,35.7,4.9,29.8L4.9,29.8z
		 M0.9,29c0,7.5,1.8,13.1,3.7,18.8c0.5,1.5,1,2.6,1.5,4c0.6,1.5,1,2.6,1.7,3.9c0.6,1.2,1.1,2.5,1.7,3.8l5.9,10.8
		c0.7,1.2,1.3,2.3,2.1,3.5c0.7,1.2,1.4,2.2,2.1,3.4c0.9,1.5,7.6,11.7,8.6,12.2c0.8,0.4,1.4,0.4,2.1,0c0.4-0.2,0.5-0.4,0.7-0.7
		c0.4-0.5,0.8-1,1.2-1.6c5.4-8,10.3-15.2,14.8-24.1l6.8-15.3c2.6-7.9,5.1-16.4,3.1-25c-3-13-14.8-22.1-27.6-22.1l-6.2,0.7
		C20,2.1,15.7,4,13.2,5.8c-5.9,4.4-9.7,9.5-11.5,16.8C1.3,24.3,0.9,26.9,0.9,29L0.9,29z"/>
</g>
<path class="st2" d="M21.8,30.7c0-0.6-0.5-0.9-0.6-2v-7.9c0-4.8,2.9-4.2,7.2-4.2c0.4,0,1,0,1,0.6c0,0.4-0.8,0.9-1,1.2
	c-0.2,0.2-0.2,0.3-0.4,0.4l-4.7,4.8c-0.4,0.9,1.4,0.1,3.7,0.1c3.8,0,7.7,1.9,10.1,4.6c0.5,0.5,1.2,1.7,1.6,2.4
	c3.2,6,0.3,13.7-6.1,16.1c-8.9,3.3-19-5.6-14.2-13.1c0.6-1,1.4-1.8,2.3-2.4C21.2,30.9,21.5,30.8,21.8,30.7L21.8,30.7L21.8,30.7z
	 M24.5,15.1l9.5-0.3l-7.7,7.5c4-0.3,8.8,1,11.7,4.4c4.6,5.3,4.6,11.5,1.9,15.8c-4.2,6.5-14.6,9.3-21.2,1.2c-1.2-1.5-1.6-3-2.5-5.3
	l-1.7,1.4c3.4,6.4,5.9,9.5,14.4,10.3c5-0.1,9.8-2.9,12.3-7.1c3.2-5.4,3-12.7-2.6-17.9c-2.1-1.8-4.8-3-8.5-4.2
	c1.9-2.3,8.2-8.7,7.7-8.1C36.2,14.4,27.1,12.4,24.5,15.1L24.5,15.1z M17.5,19.5h1l-0.2,12.1l1.8-2l0.1-12.7L17.5,19.5L17.5,19.5z
	 M16.9,31.7c0,3.8-0.7,4.4-2.5,6.5c-0.8,1-1.6,1-1,2.8c0.4,1.2,0.9,2,1.4,3c1,1.8,2.8,3.6,4.3,4.6c8,5.8,19.1,3,23.6-5.7
	c2.3-4.4,2.3-9.9,0-14.3c-0.9-1.9-2.3-3.6-3.8-5c-4-3.4-7.3-2.6-5.3-4.6l3.3-3.3c0.5-0.5,4.3-4.2,4.4-4.4c0.1-0.3-0.2-0.5-0.5-0.4
	c-0.2,0-0.5,0.2-0.8,0.3c-4.8,1.7-10.9,0.1-14.1,1.2c-1.8,0.6-3.4,2-4,3.7c-0.2,0.5,0,0.5-0.6,0.6l0-0.9c0-0.5,0.1-1.9-0.1-2
	c-0.4-0.2-0.4,0-0.5,0.2c-0.2,0.3-0.4,0.8-0.6,1.1c-1.2,1.8-2.5,3.1-4.2,4.2c-0.3,0.2-0.9,0.4-0.6,0.8c0.8,0.7,1.8-0.8,1.8,1.6
	L16.9,31.7L16.9,31.7z"/>
</svg>
