<?xml version="1.0" encoding="utf-8"?>
<!-- Generator: Adobe Illustrator 24.0.3, SVG Export Plug-In . SVG Version: 6.00 Build 0)  -->
<svg version="1.1" id="Layer_1" xmlns="http://www.w3.org/2000/svg" xmlns:xlink="http://www.w3.org/1999/xlink" x="0px" y="0px"
	 viewBox="0 0 58.9 96.3" style="enable-background:new 0 0 58.9 96.3;" xml:space="preserve">
<style type="text/css">
	.st0{fill-rule:evenodd;clip-rule:evenodd;fill:#333333;fill-opacity:0.3294;}
	.st1{fill-rule:evenodd;clip-rule:evenodd;fill:#1A1A1A;}
	.st2{fill-rule:evenodd;clip-rule:evenodd;fill:#C0977B;}
	.st3{fill:#FFFFFF;}
</style>
<g id="Слой_x0020_1">
	<path class="st0" d="M28.9,4.4c14,0,25.4,11.4,25.4,25.4S35.8,82,28.7,86.1C16.1,76,3.5,43.8,3.5,29.8S14.9,4.4,28.9,4.4z"/>
	<ellipse class="st1" cx="28.9" cy="91.1" rx="14.3" ry="4.2"/>
	<path class="st2" d="M4.7,30c0-3.3,0-3.7,0.8-7c1-4,3.5-8.3,6.6-11.1C16,8.4,18.3,7,23.7,5.7C30,4.1,37.2,5.6,42.5,9.2
		c1.5,1,2.5,1.8,3.8,3.1c0,0,0.1,0.2,0.2,0.2c2.8,3.1,4.8,6.1,5.9,10.4c2.5,10.3-1.4,21-5.3,30.2c-1,2.4-2,4.4-3.2,6.7
		c-4.1,8.2-7.7,13.9-12.7,21.5c-0.4,0.7-1.8,2.4-2,2.9L17.4,66.4c-2.9-4.8-7.8-15.6-9.3-20C6.6,41.8,4.7,35.9,4.7,30L4.7,30z
		 M0.8,29.2c0,7.5,1.8,13,3.7,18.7c0.5,1.5,0.9,2.6,1.5,4s1,2.6,1.7,3.8c0.6,1.2,1.1,2.5,1.7,3.8l5.8,10.7c0.7,1.2,1.3,2.2,2,3.5
		c0.7,1.2,1.4,2.2,2.1,3.4c0.9,1.5,7.5,11.6,8.5,12.1c0.8,0.4,1.3,0.4,2.1,0c0.4-0.2,0.5-0.3,0.7-0.7c0.4-0.5,0.8-1,1.2-1.6
		c5.4-8,10.3-15.1,14.7-23.9l6.8-15.2c2.6-7.8,5-16.3,3.1-24.8C53.4,10.1,41.7,1.1,29,1.1l-6.1,0.7c-3,0.7-7.3,2.5-9.8,4.3
		c-5.9,4.4-9.6,9.4-11.4,16.7C1.2,24.5,0.8,27.1,0.8,29.2L0.8,29.2z"/>
</g>
<g>
	<g>
		<path class="st3" d="M43.2,27.1v-5.2c0-0.7-0.6-1.3-1.3-1.3h-2.8L38,13.9c-0.1-0.6-0.6-1.1-1.3-1.1h-5.2c-0.7,0-1.3,0.6-1.3,1.3
			v6.5h-2.6v-6.5c0-0.7-0.6-1.3-1.3-1.3h-5.2c-0.6,0-1.2,0.5-1.3,1.1l-1.1,6.7h-2.8c-0.7,0-1.3,0.6-1.3,1.3v5.2
			c0,0.7,0.6,1.3,1.3,1.3h1.5l-2.8,16.7c-0.1,0.8,0.5,1.5,1.3,1.5h10.4c0.7,0,1.3-0.6,1.3-1.3V28.4h2.6v16.9c0,0.7,0.6,1.3,1.3,1.3
			h10.4c0.8,0,1.4-0.7,1.3-1.5l-2.8-16.7h1.5C42.6,28.4,43.2,27.8,43.2,27.1z M32.8,15.4h2.8l0.9,5.2h-3.7V15.4z M22.2,15.4H25v5.2
			h-3.7L22.2,15.4z M25,44h-7.6L20,28.4h5V44z M32.8,44V28.4h5L40.4,44H32.8z M40.6,25.8H17.2v-2.6c1.8,0,22.6,0,23.4,0V25.8z"/>
	</g>
</g>
</svg>
