<?xml version="1.0" encoding="utf-8"?>
<!-- Generator: Adobe Illustrator 24.0.3, SVG Export Plug-In . SVG Version: 6.00 Build 0)  -->
<svg version="1.1" id="Layer_1" xmlns="http://www.w3.org/2000/svg" xmlns:xlink="http://www.w3.org/1999/xlink" x="0px" y="0px"
	 viewBox="0 0 58.9 96.3" style="enable-background:new 0 0 58.9 96.3;" xml:space="preserve">
<style type="text/css">
	.st0{fill-rule:evenodd;clip-rule:evenodd;fill:#333333;fill-opacity:0.3294;}
	.st1{fill-rule:evenodd;clip-rule:evenodd;fill:#1A1A1A;}
	.st2{fill-rule:evenodd;clip-rule:evenodd;fill:#C0977B;}
	.st3{fill-rule:evenodd;clip-rule:evenodd;fill:#FFFFFF;}
</style>
<g id="Слой_x0020_1_1_">
	<path class="st0" d="M30.5,4.4c14,0,25.4,11.4,25.4,25.4s-19,50.4-26.1,54.5C17.2,74.2,5.1,43.8,5.1,29.8S16.5,4.4,30.5,4.4
		L30.5,4.4z"/>
	<ellipse class="st1" cx="29.9" cy="91.1" rx="14.3" ry="4.2"/>
	<path class="st2" d="M5.5,30c0-3.3,0-3.7,0.8-7c1-4,3.5-8.3,6.6-11.1C16.7,8.4,19,7,24.4,5.7c6.3-1.6,13.5-0.1,18.8,3.5
		c1.5,1,2.5,1.8,3.8,3.1c0,0,0.1,0.2,0.2,0.2c2.8,3.1,4.8,6.1,5.9,10.4c2.5,10.3-1.4,21-5.3,30.2c-1,2.4-2,4.4-3.2,6.7
		c-4.1,8.2-7.7,13.9-12.7,21.5c-0.4,0.7-1.8,2.4-2,2.9L18.1,66.4c-2.9-4.8-7.8-15.6-9.3-20C7.3,41.8,5.5,35.9,5.5,30L5.5,30z
		 M1.5,29.2c0,7.5,1.8,13,3.7,18.7c0.5,1.5,0.9,2.6,1.5,4s1,2.6,1.7,3.8c0.6,1.2,1.1,2.5,1.7,3.8l5.8,10.7c0.7,1.2,1.3,2.2,2,3.5
		c0.7,1.2,1.4,2.2,2.1,3.4c0.9,1.5,7.5,11.6,8.5,12.1c0.8,0.4,1.3,0.4,2.1,0c0.4-0.2,0.5-0.3,0.7-0.7c0.4-0.5,0.8-1,1.2-1.6
		c5.4-8,10.3-15.1,14.7-23.9L54,47.9c2.6-7.8,5-16.3,3.1-24.8c-3-12.9-14.7-21.9-27.4-21.9l-6.1,0.7c-3,0.7-7.3,2.5-9.8,4.3
		c-6,4.4-9.8,9.4-11.5,16.7C1.9,24.5,1.5,27.1,1.5,29.2L1.5,29.2z"/>
	<g id="_1948693745088">
		<path class="st3" d="M35.4,39.7c-0.2,0-0.5,0.1-0.8,0.1l-1.8,0.4c-0.2,0.1-0.6,0.2-0.8,0.2l-0.3,0.1c-0.1,0-0.2,0-0.2,0.1
			c-0.2,0.1-0.3,0.1-0.5,0.2c0-1.5-0.1-13.6,0-13.9c0.6-0.3,3-0.9,3.7-1c1.5-0.4,3.8-0.2,5.4,0.1l1.6,0.4c0.3,0.1,1.6,0.4,1.7,0.6
			v0.6v0.9v0.9v0.9v0.9v0.9V33v0.9v0.9v0.9v0.9v0.9v0.9v0.9v0.9V41l-0.9-0.3c-0.2-0.1-0.3-0.1-0.5-0.1c-0.1,0-0.3-0.1-0.4-0.2
			L40,40.1L38.9,40c-0.1,0-0.1,0-0.1,0h-0.3h-1.6h-0.2L35.4,39.7L35.4,39.7z M20.9,39.6h-0.2c-0.2,0.1-1.1,0.2-1.3,0.2l-1.5,0.3
			c-0.1,0.1-0.8,0.3-1,0.3L16,40.7v-0.8V39v-0.9v-0.9v-0.9v-0.9v-0.9v-0.9v-0.9v-0.9v-0.9V30v-0.9v-0.9v-0.9v-0.6
			c0.1-0.2,1.5-0.6,1.8-0.6c0.2-0.1,1-0.2,1.3-0.3c0.4-0.1,0.9-0.2,1.3-0.2c2.1-0.2,3.7-0.1,5.7,0.4c0.7,0.2,1.7,0.4,2.4,0.7v13.8
			L26.6,40l-1.9-0.4c-0.2,0-0.5,0-0.8-0.1c-0.3,0-0.9,0-1.1-0.1h-0.1L20.9,39.6L20.9,39.6z M33.6,23.5c-0.2,0.1-0.5,0.2-0.7,0.1
			c-0.1,0.1-0.9,0.3-1,0.3c-0.1,0.1-1.5,0.5-1.7,0.5c-0.2,0.2-0.8,0.3-1,0c-0.2,0-1.4-0.4-1.7-0.5c-0.5-0.1-1.2-0.2-1.7-0.4
			c-1.1-0.1-2-0.3-3.1-0.3c-1.2,0-2.1,0.1-3.2,0.2c-0.3,0.1-1.2,0.2-1.6,0.3c-1.1,0.3-3.6,0.9-4.4,1.5v8.6v10.6h0.7H15h0.9h0.9h0.9
			h0.9h0.9h0.9h0.9h0.9H23h0.9h0.9h0.9h0.9h0.9c0.2,0.1,0.2,0.3,0.6,0.6l0.1,0.1c0.1,0.1,0,0,0.1,0.1c0.2,0.1,0.1,0,0.1,0.1
			c0.1,0,0.6,0.2,0.9,0.3c1.1,0.2,2.3-0.5,2.5-1.2h1.9h0.9h0.9h0.9h0.9h0.9H39h0.9h0.9h0.9h0.9h0.9h0.9h0.9H46V25.2
			c-0.8-0.5-3.3-1.2-4.5-1.5c-0.4-0.1-0.6-0.1-0.7-0.2c-0.2,0-0.6-0.1-0.8-0.1c-1.1-0.1-2.1-0.2-3.2-0.2
			C35.5,23.2,34.6,23.3,33.6,23.5L33.6,23.5z"/>
		<path class="st3" d="M29.2,15.7L28.3,16l-1.9,0.4c-0.2,0.1-0.4,0.1-0.6,0.1c-0.2,0.1-0.8,0.2-1.1,0.3c-0.2,0.1-1.4,0.4-1.6,0.3
			c-0.1,0.1-0.9,0.2-1.1,0.3c-0.2,0.1-0.5,0.2-0.7,0.1l-1,0.3c-0.3,0.1-0.6,0.1-0.9,0.2c-0.2,0.1-0.5,0.1-0.7,0.1
			c-0.1,0.1-0.9,0.2-1.1,0.3c-0.3,0.1-3.1,0.8-3.3,0.7c-0.2,0.2-0.6,0.1-0.8,0.2v0.1v2.3l0.7-0.1l0.9-0.2l3.5-0.8l0.9-0.2l1.7-0.4
			l0.9-0.2l5.2-1.2c0.5-0.1,0.9-0.2,1.3-0.3c0.6-0.1,0.7-0.3,1.4-0.1l2.6,0.6l1,0.2l0.8,0.2l1.8,0.4l0.8,0.2l1,0.2l1.7,0.4
			c0.2,0,0.8,0.1,1,0.2c0.2,0,0.6,0.1,0.8,0.2c0.3,0,1.7,0.3,1.9,0.5c0.2,0,0.6,0.1,0.8,0.2l0.9,0.2l0.7,0.1v-0.6v-1.9l-2.6-0.6
			c-0.4-0.1-0.9-0.2-1.3-0.3c-0.2,0-1.2-0.2-1.3-0.3c-0.2,0-0.5-0.1-0.8-0.1c-0.2,0-1.8-0.4-1.9-0.5c-0.2,0-0.5-0.1-0.8-0.1
			c-0.2,0-0.4-0.1-0.5-0.1c-0.2,0-0.4-0.1-0.5-0.1c-0.2,0-1.4-0.3-1.6-0.3c-0.2,0-0.4-0.1-0.6-0.1l-0.4-0.1c-0.1,0-0.1,0-0.1-0.1
			c-0.2,0-0.5-0.1-0.7-0.1L31,16l-0.8-0.2c-0.2,0-0.4-0.1-0.5-0.1C29.5,15.7,29.3,15.7,29.2,15.7L29.2,15.7z"/>
	</g>
</g>
</svg>
