<?xml version="1.0" encoding="utf-8"?>
<!-- Generator: Adobe Illustrator 17.0.0, SVG Export Plug-In . SVG Version: 6.00 Build 0)  -->
<!DOCTYPE svg PUBLIC "-//W3C//DTD SVG 1.0//EN" "http://www.w3.org/TR/2001/REC-SVG-20010904/DTD/svg10.dtd">
<svg version="1.0" id="keyler_map" xmlns="http://www.w3.org/2000/svg" xmlns:xlink="http://www.w3.org/1999/xlink" x="0px" y="0px"
	 width="368px" height="167px" viewBox="0 0 368 167" enable-background="new 0 0 368 167" xml:space="preserve">
<polygon id="8" fill-rule="evenodd" clip-rule="evenodd" fill="none" stroke="#5C5C5C" stroke-width="0.25" stroke-miterlimit="10" points="
	297.081,35.422 297.081,46.94 297.081,59.074 292.531,59.074 271.581,76.564 271.581,91.211 253.996,91.211 253.996,57.344 
	253.996,47.153 253.996,46.94 254.493,46.442 253.996,35.422 "/>
<polygon id="6" fill-rule="evenodd" clip-rule="evenodd" fill="none" stroke="#5C5C5C" stroke-width="0.25" stroke-miterlimit="10" points="
	211.716,35.446 247.62,35.446 247.62,41.3 247.62,47.153 243.805,47.153 243.805,57.344 247.62,57.344 247.62,80.072 
	224.016,80.072 224.016,59.074 211.716,59.074 "/>
<polygon id="7" fill-rule="evenodd" clip-rule="evenodd" fill="none" stroke="#5C5C5C" stroke-width="0.25" stroke-miterlimit="10" points="
	210.46,99.884 224.016,88.58 224.016,80.072 247.62,80.072 247.62,123.513 210.46,123.513 "/>
<polygon id="3" fill-rule="evenodd" clip-rule="evenodd" fill="none" stroke="#5C5C5C" stroke-width="0.25" stroke-miterlimit="10" points="
	166.758,41.797 166.758,47.153 166.758,57.344 166.758,74.028 143.154,74.028 130.617,59.051 119.028,59.051 119.028,35.493 
	165.787,35.493 165.787,41.797 "/>
<rect id="4" x="143.154" y="74.028" fill-rule="evenodd" clip-rule="evenodd" fill="none" stroke="#5C5C5C" stroke-width="0.25" stroke-miterlimit="10" width="23.605" height="49.958"/>
<polygon id="2" fill-rule="evenodd" clip-rule="evenodd" fill="none" stroke="#5C5C5C" stroke-width="0.25" stroke-miterlimit="10" points="
	119.028,59.051 107.439,59.051 94.926,74.028 71.297,74.028 71.297,41.797 71.5,41.5 71.5,35.5 119.028,35.493 "/>
<rect id="1" x="71.297" y="74.028" fill-rule="evenodd" clip-rule="evenodd" fill="none" stroke="#5C5C5C" stroke-width="0.25" stroke-miterlimit="10" width="23.628" height="49.958"/>
<polygon id="5" fill-rule="evenodd" clip-rule="evenodd" fill="none" stroke="#5C5C5C" stroke-width="0.25" stroke-miterlimit="10" points="
	188.775,78.223 188.775,91.163 173.181,91.163 173.181,57.344 176.949,57.344 176.949,47.153 173.181,47.153 173.181,35.5 
	174.176,35.5 211.716,35.5 211.716,59.074 "/>
<polygon id="9" fill-rule="evenodd" clip-rule="evenodd" fill="none" stroke="#5C5C5C" stroke-width="0.25" stroke-miterlimit="10" points="
	296.716,35.446 332.62,35.446 332.62,41.3 332.62,47.153 328.805,47.153 328.805,57.344 332.62,57.344 332.62,80.072 
	309.016,80.072 309.016,59.074 296.716,59.074 "/>
<polygon id="10" fill-rule="evenodd" clip-rule="evenodd" fill="none" stroke="#5C5C5C" stroke-width="0.25" stroke-miterlimit="10" points="
	295.46,99.884 309.016,88.58 309.016,80.072 332.62,80.072 332.62,123.513 295.46,123.513 "/>
</svg>
